<svg width="4" height="9" fill="none" xmlns="http://www.w3.org/2000/svg"><g clip-path="url(#clip0_1_571)"><path d="M3.891 4.188L.861.628A.344.344 0 00.598.5C.498.5.405.545.335.628L.112.89a.494.494 0 000 .619l2.544 2.99L.109 7.49A.476.476 0 000 7.8a.48.48 0 00.109.31l.223.261c.07.083.164.128.263.128.1 0 .194-.045.264-.128L3.89 4.81A.477.477 0 004 4.499a.477.477 0 00-.109-.311z" fill="#101112"/></g><defs><clipPath id="clip0_1_571"><path fill="#fff" transform="rotate(-90 4.25 4.25)" d="M0 0h8v4H0z"/></clipPath></defs></svg>