<svg width="22" height="22" fill="none" xmlns="http://www.w3.org/2000/svg"><path d="M6.7 14.4h11.858c1.345 0 2.442-1.076 2.442-2.395V7.059c0-.009 0-.017-.004-.026 0-.009-.005-.022-.005-.03 0-.01-.004-.018-.004-.027-.005-.008-.005-.017-.01-.03-.003-.009-.003-.017-.008-.026-.004-.009-.004-.017-.009-.026-.004-.009-.009-.017-.013-.03-.005-.01-.009-.018-.013-.022l-.014-.026c-.004-.009-.009-.013-.013-.022-.004-.008-.013-.017-.018-.026a.075.075 0 00-.017-.022c-.005-.008-.014-.013-.018-.021-.004-.009-.013-.013-.018-.022-.004-.009-.013-.013-.017-.017l-.022-.022c-.01-.004-.014-.013-.023-.017-.008-.005-.017-.013-.026-.018-.009-.004-.013-.008-.022-.013a.093.093 0 01-.027-.017l-.026-.013-.027-.013-.026-.013c-.01-.004-.018-.004-.027-.009a.083.083 0 00-.03-.008c-.01 0-.019-.005-.023-.005-.013-.004-.022-.004-.035-.004-.005 0-.01-.004-.018-.004L5.457 4.495V2.438c0-.022 0-.043-.004-.06 0-.005 0-.01-.005-.018 0-.013-.004-.026-.004-.04-.005-.012-.005-.02-.009-.034 0-.008-.004-.013-.004-.021l-.014-.04-.004-.017a.129.129 0 00-.018-.035c-.004-.004-.004-.013-.009-.017a.09.09 0 00-.017-.026c-.005-.009-.01-.013-.014-.022l-.013-.021c-.004-.009-.013-.018-.018-.026-.004-.005-.008-.01-.013-.013l-.026-.026-.014-.013a.11.11 0 00-.03-.026l-.018-.014-.027-.021c-.013-.009-.026-.018-.035-.022-.005-.004-.01-.004-.013-.009l-.058-.026L1.83.546a.6.6 0 00-.783.313c-.128.3.014.642.319.768l2.892 1.197v12.834c0 1.215.93 2.222 2.128 2.374a2.333 2.333 0 00-.345 1.215c0 1.305 1.084 2.364 2.41 2.364 1.328 0 2.411-1.063 2.411-2.364 0-.434-.12-.847-.332-1.194h5.37c-.212.352-.332.76-.332 1.194 0 1.305 1.084 2.364 2.411 2.364s2.41-1.063 2.41-2.364c0-1.302-1.083-2.365-2.41-2.365H6.7c-.69 0-1.247-.551-1.247-1.224V14.07c.362.209.791.33 1.247.33zm2.972 4.842c0 .66-.548 1.193-1.216 1.193-.668 0-1.216-.538-1.216-1.193s.548-1.193 1.216-1.193c.668 0 1.216.534 1.216 1.193zm9.528 0c0 .66-.549 1.193-1.217 1.193s-1.216-.538-1.216-1.193.549-1.193 1.216-1.193c.668 0 1.217.534 1.217 1.193zm-.642-6.013H6.7c-.69 0-1.247-.551-1.247-1.224v-6.33l14.353 1.94V12c0 .68-.562 1.228-1.248 1.228z" fill="#8B8D8D" stroke="#8B8D8D" stroke-width=".3"/></svg>