<svg width="38" height="38" fill="none" xmlns="http://www.w3.org/2000/svg"><circle cx="19" cy="19" r="19" fill="url(#paint0_linear_1_1202)"/><g clip-path="url(#clip0_1_1202)" fill="#fff"><path d="M26.305 5.717c-1.229.222-2.067.654-2.874 1.466-1.145 1.16-1.65 2.732-1.371 4.287.105.612.443 1.598.812 2.368 1.16 2.426 2.821 4.24 3.997 4.377.554.069 1.255-.31 2.025-1.086 1.271-1.271 2.458-3.375 2.959-5.22.105-.38.12-.576.12-1.293 0-.775-.015-.88-.152-1.318-.459-1.46-1.398-2.547-2.748-3.17-.643-.295-1.112-.4-1.924-.416-.39-.01-.77-.005-.844.005zm1.82 1.181c.796.254 1.56.78 2.014 1.387.922 1.25 1.054 2.6.422 4.24-.633 1.63-1.91 3.512-2.954 4.345-.558.449-.912.36-1.698-.442-1.26-1.282-2.468-3.433-2.794-4.984-.428-2.051.954-4.15 3.053-4.63.474-.105 1.482-.063 1.956.084z"/><path d="M26.595 8.217a2.526 2.526 0 00-1.988 1.682c-.137.396-.142 1.144-.016 1.54a2.52 2.52 0 004.894-.37c.206-1.339-.744-2.641-2.073-2.852-.38-.058-.437-.058-.817 0zm.986 1.15c.343.152.549.353.723.706.126.248.163.396.163.622 0 .359-.227.865-.485 1.081-.443.375-.976.48-1.466.296a1.453 1.453 0 01-.322-2.58c.422-.29.923-.331 1.387-.126zM11.09 10.732c-.057.01-.294.058-.527.1-1.845.354-3.543 1.55-4.561 3.207a7.435 7.435 0 00-.802 1.93c-.21.796-.263 2.035-.126 2.9.485 3.059 2.347 6.776 4.282 8.548.696.644 1.16.94 1.809 1.16 1.787.617 3.85-.864 5.7-4.092 1.287-2.236 2.168-5.02 2.162-6.84 0-.505-.137-1.386-.29-1.913-.754-2.574-2.953-4.53-5.579-4.958-.443-.073-1.798-.1-2.067-.042zm1.984 1.102c2.947.56 5.057 3.238 4.878 6.191-.095 1.561-.528 3.048-1.403 4.826-1.287 2.62-3.159 4.661-4.414 4.804-.58.068-1.366-.364-2.236-1.24-1.856-1.866-3.401-4.983-3.792-7.64-.073-.507-.073-1.53 0-1.994.238-1.508 1.097-2.927 2.347-3.866.67-.506 1.756-.97 2.605-1.112.443-.074 1.55-.058 2.015.031z"/><path d="M11.222 14.255c-.432.095-1.107.427-1.45.712a3.556 3.556 0 00-.839 4.466c.443.802 1.277 1.44 2.194 1.683.443.116 1.281.116 1.73 0 1.571-.406 2.642-1.767 2.647-3.375.005-.644-.08-1.018-.364-1.609a3.456 3.456 0 00-2.099-1.798c-.48-.148-1.34-.19-1.819-.08zm1.345 1.055c1.592.416 2.367 2.167 1.576 3.575a2.447 2.447 0 01-3.886.533 2.422 2.422 0 01.005-3.439c.633-.632 1.487-.88 2.305-.67zm10.116 3.808c-.644.438-1.561 1.318-1.925 1.851-.854 1.24-1.012 2.326-.49 3.37.163.321.342.522 1.413 1.582.933.928 1.297 1.318 1.524 1.671.364.554.564 1.024.596 1.424.026.253.01.333-.106.533-.39.664-1.482.97-3.623 1.023-2.05.053-3.923-.221-5.81-.85-.618-.2-.744-.226-.903-.184a.508.508 0 00-.205.85c.179.168.96.448 1.95.695 1.683.422 3.197.586 4.995.544 1.329-.037 2.02-.116 2.742-.327 1.266-.37 1.962-1.087 2.02-2.083.031-.543-.048-.855-.385-1.556-.443-.907-1.023-1.587-2.706-3.143-.337-.316-.469-.48-.595-.76-.153-.316-.164-.384-.143-.732.053-.85.796-1.91 1.978-2.822.237-.184.458-.4.49-.48.132-.31-.079-.664-.427-.717-.137-.02-.227 0-.39.111z"/></g><defs><linearGradient id="paint0_linear_1_1202" x1="19" y1="0" x2="19" y2="38" gradientUnits="userSpaceOnUse"><stop stop-color="#C14334"/><stop offset="1" stop-color="#791F17"/></linearGradient><clipPath id="clip0_1_1202"><path fill="#fff" transform="translate(5 5)" d="M0 0h27v27H0z"/></clipPath></defs></svg>