<svg width="14" height="16" fill="none" xmlns="http://www.w3.org/2000/svg"><g clip-path="url(#clip0_1_370)"><path d="M11.149 6.214V4.76C11.149 2.686 9.288 1 7 1 4.713 1 2.852 2.686 2.852 4.76v1.454A1.876 1.876 0 001.297 8.06v5.066c0 1.033.84 1.874 1.874 1.874h7.66c1.033 0 1.873-.84 1.873-1.874V8.059c0-.924-.674-1.693-1.555-1.845zM3.37 4.76c0-1.787 1.628-3.24 3.63-3.24 2.001 0 3.63 1.453 3.63 3.24v1.426H3.37V4.76zm8.815 8.367c0 .747-.608 1.356-1.356 1.356H3.171a1.357 1.357 0 01-1.356-1.356V8.059c0-.747.609-1.355 1.356-1.355h7.66c.747 0 1.355.608 1.355 1.355v5.067z" fill="#A61F1F" stroke="#A61F1F"/></g><defs><clipPath id="clip0_1_370"><path fill="#fff" d="M0 0h14v16H0z"/></clipPath></defs></svg>