<svg width="82" height="82" fill="none" xmlns="http://www.w3.org/2000/svg"><g clip-path="url(#clip0_1_849)" fill="#9D0B1D"><path d="M75.562.224a4.64 4.64 0 00-.977.465c-.465.304-4.437 3.988-4.437 4.1 0 .064 1.538 1.633 3.428 3.523l3.427 3.427 2.034-1.905c1.618-1.522 2.114-2.098 2.515-2.9.448-.928.48-1.088.416-2.322-.112-1.97-.945-3.315-2.579-4.164-.848-.432-2.93-.56-3.827-.224zm-18.69 17.778l-9.85 9.85.48.175c2.755.993 4.469 2.45 5.638 4.773.336.689.657 1.41.72 1.634.097.368.93-.417 9.994-9.482l9.898-9.897-3.443-3.444c-1.89-1.89-3.476-3.443-3.524-3.443-.048 0-4.516 4.436-9.913 9.834zM4.965 14.863c-2.322.864-3.908 2.434-4.66 4.628-.29.88-.305 1.538-.305 25.225v24.311l.8-.4c1.442-.72 2.435-.897 5.734-.993l3.075-.096V14.574l-1.954.016c-1.425 0-2.178.08-2.69.273z"/><path d="M14.254 48.11v24.088l-5.237.065-5.253.047-.881.417c-1.25.593-1.826 1.137-2.387 2.258C.064 75.818 0 76.138 0 77.18c0 1.938.913 3.476 2.61 4.373l.673.368 34.482.048L72.23 82v-4.965H24.184V53.012H72.23V24.023h-.513c-.48 0-1.297.77-9.097 8.553l-8.568 8.552-11.612 4.965c-6.39 2.739-11.627 4.949-11.659 4.933-.016-.032 2.226-5.35 5.013-11.804l5.045-11.755 1.73-1.73 1.713-1.714H14.254v24.088z"/><path d="M41.657 37.252c-1.153 2.707-2.082 4.933-2.05 4.965.032.032 2.258-.897 4.965-2.05l4.916-2.098V37.06c0-2.77-1.873-4.708-4.58-4.708h-1.153l-2.098 4.9zM28.94 57.768c-.064.048-.112 3.364-.112 7.367v7.256H82V57.656h-5.125v4.805h-4.644v-4.805h-4.965v4.805H62.62v-4.805h-4.965v4.805h-4.644v-4.805h-4.965v4.805h-4.645V57.64l-2.434.048-2.45.048-.049 2.355-.047 2.37h-4.629v-4.805h-2.37c-1.314 0-2.435.048-2.483.112z"/></g><defs><clipPath id="clip0_1_849"><path fill="#fff" d="M0 0h82v82H0z"/></clipPath></defs></svg>