<svg width="73" height="73" fill="none" xmlns="http://www.w3.org/2000/svg"><path d="M32.089.592a36.35 36.35 0 00-20.981 9.98 41.118 41.118 0 00-2.55 2.725l-1.006 1.239-1.18-.073c-.947-.058-1.311-.015-1.981.233-2.929 1.107-3.978 4.764-2.07 7.241.482.656.51.729.35 1.137C1.666 25.594.777 29.077.4 31.947c-.248 1.967-.292 6.63-.073 8.626.583 5.216 2.258 10.155 4.997 14.715 2.943 4.896 7.606 9.53 12.458 12.385 1.253.728 1.486.918 1.413 1.165-.044.16-.175.86-.291 1.545-.248 1.37-.16 1.894.35 2.156.203.117 5.536.16 17.105.16 16.362 0 16.828-.014 17.163-.276.291-.233.35-.394.32-1.064-.014-.437-.13-1.238-.262-1.792-.175-.801-.19-1.02-.043-1.107 4.254-2.448 7.955-5.479 10.534-8.626l1.005-1.238 1.18.073c.947.058 1.312.014 1.982-.233 2.928-1.108 3.978-4.765 2.069-7.242-.481-.656-.51-.728-.35-1.136 1.005-2.52 1.894-6.003 2.273-8.873.291-2.273.291-6.965 0-9.238-.379-2.87-1.268-6.352-2.273-8.873-.16-.408-.131-.48.35-1.137 1.909-2.477.86-6.134-2.07-7.24-.67-.249-1.034-.292-1.98-.234l-1.18.073-1.006-1.239c-1.268-1.544-3.686-3.89-5.318-5.157C53.798 4.278 48.334 1.889 41.996.782 40.38.505 33.836.374 32.09.592zm-1.822 3.133c-.233.204-.918.801-1.5 1.326l-1.064.947-.933-.248c-1.282-.35-2.447-.218-3.598.393-1.006.525-1.472 1.035-1.997 2.157-.553 1.165-.539 2.797.03 3.948.218.452.393.86.393.904 0 .043-.277.51-.597 1.049-.51.801-.656.947-.918.86-1.821-.554-6.79-2.725-6.79-2.988 0-.174 1.443-1.427 2.972-2.564C19.85 6.83 24.381 4.73 28.767 3.71c1.923-.437 2.04-.437 1.5.015zm9.587 1.267c2.04 1.53 5.828 5.217 7.27 7.096 1.72 2.23 2.638 3.672 2.42 3.803-.365.204-4.692.99-6.674 1.21-1.078.116-2.739.261-3.671.32l-1.72.102V3.33l.306.16c.16.088 1.093.758 2.07 1.501zm3.934-1.282c4.43 1.006 8.96 3.104 12.633 5.843 1.471 1.107 2.913 2.346 2.913 2.52 0 .263-4.968 2.434-6.79 2.987-.261.088-.422-.087-1.121-1.194-2.302-3.628-5.041-6.688-9.063-10.141-.233-.204-.364-.364-.291-.379.087 0 .86.16 1.72.364zm-8.785 6.79v7.023l-1.632-.102c-3.308-.204-7.65-.816-9.908-1.414l-.54-.145.38-.627c.35-.568.422-.626.743-.51.626.233 2.302.146 3.147-.175.932-.35 1.952-1.267 2.433-2.185.48-.933.554-2.841.16-3.876l-.291-.757 1.311-1.137c1.355-1.165 3.89-3.089 4.095-3.103.058 0 .101 3.161.101 7.008zm-8.611-2.2c2.025 1.02 1.282 4.08-.991 4.08-.845 0-1.515-.438-1.894-1.224-.452-.918-.35-1.661.32-2.404.7-.744 1.661-.918 2.565-.452zm-13.784 6.323c1.399.758 3.118 1.516 5.056 2.23.758.276 1.399.524 1.428.553.03.015-.146.423-.379.889-.233.48-.787 1.777-1.238 2.9-1.53 3.89-2.39 7.649-2.754 12.049l-.175 2.156H2.657v-.714c0-2.17.874-6.498 1.88-9.34l.539-1.529 1.15-.087c1.443-.102 2.405-.554 3.293-1.56.89-.99 1.21-1.937 1.122-3.365-.058-.918-.16-1.282-.524-1.982-.379-.684-.437-.888-.292-1.078.438-.568 1.457-1.763 1.516-1.763.029 0 .597.292 1.267.641zm49.364.117c.364.422.728.874.816.99.13.19.073.423-.335 1.224-.423.86-.496 1.137-.496 2.04 0 1.34.335 2.273 1.151 3.177.889 1.005 1.85 1.457 3.278 1.559l1.166.087.495 1.384c1.006 2.856 1.69 6.047 1.88 8.771l.087 1.428H58.067l-.102-1.5c-.35-5.07-1.632-10.229-3.643-14.673-.451-.99-.8-1.82-.772-1.835.015-.03.656-.263 1.414-.54 1.82-.67 4.225-1.733 5.318-2.36.48-.277.918-.51.961-.51.058 0 .379.35.729.758zM7.028 17.173a2.143 2.143 0 010 3.817c-1.02.554-2.302.16-2.9-.888-.393-.7-.393-1.34 0-2.04.598-1.05 1.865-1.443 2.9-.889zm60.611.03c.642.363 1.166 1.209 1.166 1.879 0 1.078-1.122 2.185-2.215 2.185-1.165 0-2.156-1.005-2.156-2.185a2.136 2.136 0 013.206-1.88zM24.731 18.79c2.71.525 5.157.845 7.27.947.889.044 1.967.117 2.39.16l.757.074V35.4H17.081v-.408c0-.99.35-3.92.656-5.638.641-3.424 1.617-6.455 3.089-9.558l.801-1.705.466.131c.248.073 1.443.32 2.638.568zm26.721.131c1.56 3.075 2.972 7.504 3.57 11.088.218 1.37.524 4.211.524 4.983v.408H37.48V19.97l.773-.072a57.05 57.05 0 012.374-.16 46.243 46.243 0 003.352-.307c1.733-.218 6.76-1.165 6.891-1.296.117-.132.146-.088.583.786zm-36.79 20.297c.336 5.055 1.75 10.636 3.803 15.065.365.772.656 1.428.656 1.442 0 .03-.437.19-.976.38-1.428.466-4.153 1.646-5.551 2.403-1.414.758-1.239.802-2.506-.757-3.25-3.963-5.595-8.873-6.76-14.119-.292-1.326-.671-4.254-.671-5.187v-.714H14.56l.102 1.486zm20.486-.83c0 .596-.029.655-.393.742-3.366.743-5.624 2.419-7.023 5.245-.641 1.312-.918 2.535-.903 4.211 0 1.676.247 2.783.932 4.167l.466.976-1.602.248c-.875.146-2.36.437-3.308.656l-1.69.378-.67-1.384c-1.603-3.409-2.623-6.614-3.278-10.359-.277-1.515-.598-4.371-.598-5.216v-.32h18.067v.655zm20.325.684a40.943 40.943 0 01-3.802 14.555l-.656 1.384-1.705-.378a62.976 62.976 0 00-3.307-.656l-1.603-.248.466-.976c.67-1.355.933-2.491.933-4.094.014-2.754-.874-4.954-2.783-6.848-1.457-1.457-2.841-2.17-5.129-2.68-.379-.088-.408-.147-.408-.744v-.656h18.096l-.102 1.34zm14.454.087c-.19 2.725-.874 5.916-1.88 8.772l-.495 1.384-1.166.087c-1.427.102-2.39.554-3.278 1.559-.816.903-1.15 1.836-1.15 3.176 0 .904.072 1.18.495 2.04l.51 1.005-.336.438c-.189.233-.568.684-.845 1.005l-.495.568-1.224-.67c-1.428-.772-4.138-1.953-5.566-2.419-.553-.19-.99-.35-.99-.379 0-.014.29-.67.655-1.442 2.055-4.43 3.468-10.01 3.803-15.066l.102-1.486h11.947l-.087 1.428zm-31.253 2.754a7.086 7.086 0 014.648 6.63c0 1.835-.583 3.35-1.821 4.735-1.399 1.544-3.045 2.273-5.187 2.273-2.142 0-3.788-.729-5.187-2.273-1.239-1.384-1.821-2.9-1.821-4.736.014-3.234 2.054-5.871 5.26-6.818.946-.277 3.074-.175 4.108.189zM67.64 52.17c.642.365 1.166 1.21 1.166 1.88 0 1.078-1.122 2.185-2.215 2.185-1.165 0-2.156-1.005-2.156-2.185a2.136 2.136 0 013.206-1.88zm-37.066 4.022l.379.233-.86.32c-1.617.612-3.22 1.53-5.143 2.958-.233.16-.32.102-.758-.51a17.47 17.47 0 01-.888-1.311l-.38-.598 1.269-.306c1.194-.276 3.088-.597 5.055-.874.481-.073.89-.13.918-.145.015 0 .204.102.408.233zm13.099-.03c1.384.16 3.497.525 4.764.816l1.268.306-.38.598a17.47 17.47 0 01-.888 1.311c-.437.612-.524.67-.758.51-1.937-1.442-4.443-2.827-5.594-3.118l-.423-.102.35-.262c.19-.146.48-.233.64-.204.161.029.627.102 1.02.145zm-22.045 3.745l1.239 1.85-.744.991c-.407.54-1.034 1.53-1.369 2.2l-.627 1.195-.684-.393c-1.749-1.006-3.803-2.492-5.857-4.24l-.496-.437 1.515-.758c1.72-.86 5.435-2.346 5.697-2.287.059.014.656.86 1.326 1.88zm32.608-1.238c1.588.582 5.1 2.229 5.1 2.39 0 .145-1.355 1.34-2.623 2.316-1.005.772-2.302 1.632-3.672 2.462l-.539.32-.626-1.209a17.095 17.095 0 00-1.37-2.2l-.743-.99 1.253-1.88c1.05-1.588 1.297-1.88 1.544-1.807.16.059.918.32 1.676.598zm-17.28.655c.204.67.728 2.317 1.166 3.687l.8 2.462-.64.743-1.297 1.457-.67.728-.67-.728c-.365-.408-.947-1.064-1.297-1.457l-.641-.743.801-2.462a428.5 428.5 0 001.166-3.687c.291-.947.422-1.194.64-1.194.22 0 .35.247.642 1.194zm-3.7-.772c0 .058-.496 1.661-1.094 3.555-.597 1.88-1.092 3.599-1.092 3.803 0 .248.291.7.86 1.355.465.554 1.252 1.442 1.748 2.01l.888 1.02-6.512.044c-3.57.015-6.542 0-6.572-.043-.043-.044.059-.583.248-1.195 1.5-5.114 5.318-8.873 10.578-10.447.889-.262.947-.262.947-.102zm7.692.32c4.05 1.254 7.576 4.444 9.296 8.407.51 1.166 1.02 2.9.903 3.017-.044.043-3.001.058-6.571.043l-6.513-.043.889-1.02c.495-.569 1.282-1.457 1.748-2.011.569-.656.86-1.107.86-1.355 0-.204-.495-1.923-1.093-3.803-.597-1.894-1.093-3.497-1.093-3.57 0-.145.102-.116 1.574.336z" fill="#9D0B1D"/></svg>