<svg width="82" height="82" fill="none" xmlns="http://www.w3.org/2000/svg"><g clip-path="url(#clip0_1_854)" fill="#9D0B1D"><path d="M36.355.256a31.343 31.343 0 00-26.33 26.506c-.336 2.226-.336 6.695-.015 8.937 1.025 6.95 4.388 13.453 9.465 18.274 1.57 1.49 2.643 2.322 5.173 3.971l2.002 1.314h28.7l2.002-1.314c2.627-1.713 3.62-2.498 5.317-4.132 4.58-4.404 7.656-9.977 9.017-16.383.56-2.66.72-7.752.32-10.523C69.972 12.973 59.322 2.29 45.468.256c-2.146-.32-6.999-.32-9.113 0zm10.539 9.754c.993.592 1.217 1.185 1.281 3.38l.064 1.937.993.496c.529.273 1.233.657 1.553.85l.561.352 1.602-.897c1.265-.721 1.745-.913 2.29-.913 1.393 0 1.361-.032 5.125 6.502 1.65 2.883 1.938 3.476 1.938 4.068 0 1.073-.433 1.57-2.226 2.627l-1.618.945v3.747l1.618.945c1.793 1.057 2.226 1.554 2.226 2.627 0 .592-.288 1.185-1.938 4.068-3.764 6.534-3.732 6.502-5.125 6.502-.545 0-1.025-.192-2.29-.913l-1.602-.897-.56.353c-.32.192-1.026.576-1.554.849l-.993.496-.064 1.938c-.064 2.194-.272 2.738-1.25 3.347-.544.337-.688.353-5.925.353s-5.381-.017-5.926-.353c-.977-.608-1.185-1.153-1.249-3.347l-.064-1.938-.993-.496a35.074 35.074 0 01-1.554-.85l-.56-.352-1.602.897c-1.265.72-1.745.913-2.29.913-1.393 0-1.361.032-5.125-6.502-1.65-2.883-1.938-3.476-1.938-4.068 0-1.073.433-1.57 2.226-2.627l1.618-.945v-3.747l-1.618-.945c-1.793-1.057-2.226-1.554-2.226-2.627 0-.592.288-1.185 1.938-4.068 3.764-6.534 3.732-6.502 5.125-6.502.545 0 1.025.192 2.29.913l1.602.897.56-.353a35.58 35.58 0 011.554-.849l.993-.496.064-1.938c.096-2.562.464-3.267 1.938-3.635.272-.065 2.787-.113 5.557-.097 4.725.032 5.077.048 5.574.353z"/><path d="M38.566 15.92c-.064 1.153-.16 1.633-.417 2.05-.352.56-.576.704-2.466 1.553-.945.416-1.746.929-3.524 2.21-.816.609-1.697.497-3.187-.352-.688-.4-1.281-.72-1.329-.72-.064 0-2.498 4.115-2.498 4.243 0 .032.576.385 1.265.785 1.906 1.121 1.842.929 1.858 5.461.016 4.613.064 4.485-1.842 5.606-.705.416-1.281.769-1.281.8 0 .129 2.434 4.245 2.498 4.245.048 0 .64-.32 1.33-.72 1.489-.85 2.37-.962 3.186-.37 1.778 1.298 2.579 1.81 3.524 2.227 1.89.849 2.114.993 2.466 1.553.257.417.353.897.417 2.05l.08 1.506h4.708l.08-1.506c.064-1.153.16-1.633.417-2.05.352-.56.576-.704 2.466-1.553.945-.416 1.746-.929 3.524-2.226.832-.593 1.745-.497 3.203.368.688.4 1.265.72 1.313.72.064 0 2.498-4.115 2.498-4.243 0-.048-.576-.4-1.28-.801-1.907-1.105-1.859-.993-1.843-5.622.016-3.299.049-3.924.273-4.26.144-.224.848-.752 1.553-1.153.72-.416 1.297-.769 1.297-.817 0-.128-2.434-4.244-2.498-4.244-.048 0-.625.32-1.313.72-1.458.866-2.37.962-3.203.353-1.778-1.281-2.579-1.794-3.524-2.21-1.89-.849-2.114-.993-2.466-1.553-.257-.417-.353-.897-.417-2.05l-.08-1.506h-4.708l-.08 1.505zm4.692 6.918a8.82 8.82 0 013.844 2.29c1.714 1.714 2.546 3.7 2.546 6.102 0 2.403-.832 4.389-2.546 6.102-1.714 1.714-3.7 2.547-6.102 2.547s-4.388-.833-6.102-2.547c-1.714-1.713-2.546-3.7-2.546-6.102 0-3.86 2.434-7.11 6.246-8.344 1.153-.368 3.475-.4 4.66-.048z"/><path d="M39.11 27.643c-1.49.753-2.194 2.05-2.082 3.908.08 1.393.673 2.418 1.794 3.123.72.432.912.48 2.178.48 1.265 0 1.457-.048 2.178-.48a4.33 4.33 0 001.265-1.265c.433-.721.48-.913.48-2.178 0-1.266-.047-1.458-.48-2.179-.737-1.185-1.746-1.73-3.267-1.793-1.057-.049-1.33 0-2.066.384zM1.057 6.71C.32 7.208 0 7.833 0 8.794c0 1.537.176 1.697 4.324 3.78 3.3 1.665 3.748 1.841 4.517 1.841 1.49 0 2.37-.897 2.37-2.386 0-1.538-.176-1.698-4.324-3.78-3.3-1.666-3.748-1.842-4.517-1.842-.56 0-1.009.112-1.313.305zm74.024 1.554c-4.116 2.066-4.292 2.226-4.292 3.764 0 1.49.88 2.386 2.37 2.386.77 0 1.218-.176 4.517-1.842C81.824 10.49 82 10.33 82 8.792c0-1.52-.88-2.386-2.402-2.37-.801 0-1.218.16-4.517 1.842zM4.292 49.905C.176 51.97 0 52.13 0 53.668c0 1.49.88 2.387 2.37 2.387.77 0 1.217-.176 4.517-1.842 4.148-2.082 4.324-2.242 4.324-3.78 0-1.521-.88-2.386-2.402-2.37-.801 0-1.218.16-4.517 1.842zm67.554-1.554c-.737.497-1.057 1.121-1.057 2.082 0 1.538.176 1.698 4.324 3.78 3.3 1.666 3.748 1.842 4.517 1.842 1.49 0 2.37-.897 2.37-2.387 0-1.537-.176-1.697-4.324-3.78-3.3-1.665-3.748-1.841-4.517-1.841-.56 0-1.009.112-1.313.304zM27.42 66.257c.047 1.953.095 2.306.448 3.01.496 1.026 1.617 2.147 2.642 2.643l.801.4H50.69l.8-.4c1.026-.496 2.147-1.617 2.643-2.642.353-.705.4-1.058.449-3.011l.064-2.195H27.355l.064 2.195zm3.97 11.547c0 .8.817 2.45 1.49 3.01.288.241.88.61 1.313.802.801.384.85.384 6.823.384h6.022l.977-.496c.544-.257 1.169-.721 1.41-.994.624-.736 1.184-2.017 1.184-2.722v-.593H31.39v.609z"/></g><defs><clipPath id="clip0_1_854"><path fill="#fff" d="M0 0h82v82H0z"/></clipPath></defs></svg>