<svg width="84" height="60" fill="none" xmlns="http://www.w3.org/2000/svg"><path d="M13.37.731c-3.838.952-7.12 4.282-8.038 8.121-.312 1.346-.312 4.036 0 5.382.919 3.839 4.265 7.218 8.039 8.104.787.197.902.263.574.328-3.166.722-4.134 1.05-5.726 1.936-3.691 2.1-6.398 5.464-7.678 9.614L.098 35.66l-.065 7.006-.05 7.022h21.132l.115-1.444c.295-3.692 1.476-7.071 3.56-10.14 1.066-1.59 3.248-3.855 4.741-4.954.673-.509 1.247-.919 1.28-.952.115-.082-.87-1.837-1.575-2.854-1.444-2.035-2.986-3.43-5.201-4.709-1.263-.738-3.511-1.591-4.676-1.755-1.394-.23-1.46-.296-.41-.542 3.79-.87 7.137-4.265 8.055-8.186.378-1.608.247-4.676-.246-6.136-1.115-3.265-3.806-5.956-7.07-7.071C18.292.469 14.88.354 13.37.73zm51.68 0c-2.247.558-4.659 2.166-6.053 4.003-1.559 2.1-2.231 4.118-2.231 6.809 0 2.69.672 4.709 2.23 6.809 1.412 1.854 3.873 3.494 6.055 3.986 1.05.246.984.312-.41.542-1.165.164-3.413 1.017-4.676 1.755-2.215 1.28-3.757 2.674-5.201 4.709-.706 1.017-1.69 2.772-1.575 2.854.033.033.607.443 1.28.952 1.492 1.1 3.675 3.363 4.741 4.955 2.084 3.068 3.265 6.447 3.56 10.139l.115 1.444h21.131l-.049-7.022-.066-7.006-.443-1.444c-1.28-4.15-3.986-7.514-7.678-9.614-1.591-.886-2.56-1.214-5.725-1.936-.329-.065-.214-.13.574-.328 3.822-.886 7.136-4.265 8.055-8.186.378-1.608.246-4.676-.246-6.136C77.323 4.75 74.632 2.06 71.367.945 69.972.469 66.56.354 65.051.73z" fill="#9D0B1D"/><path d="M39.621 11.723c-1.444.312-3.494 1.296-4.709 2.28-2.428 1.953-4.068 5.431-4.068 8.614 0 3.183 1.64 6.661 4.069 8.613 1.148.92 3.232 1.953 4.528 2.232l.968.213-1.215.197c-5.66.968-10.45 5.037-12.37 10.533-.77 2.215-.902 3.56-.902 9.564v5.562h32.156V53.97c0-6.004-.131-7.35-.902-9.564-1.92-5.496-6.71-9.565-12.37-10.533l-1.215-.197.968-.213c1.297-.28 3.38-1.313 4.529-2.232 2.428-1.952 4.068-5.43 4.068-8.613 0-2.313-.886-4.905-2.362-6.841-2.494-3.298-6.99-4.922-11.173-4.053z" fill="#9D0B1D"/></svg>