<svg width="78" height="78" fill="none" xmlns="http://www.w3.org/2000/svg"><path d="M5.273.5c-1.015.142-2.33.733-3.085 1.386A6.554 6.554 0 00.142 5.089C.008 5.585 0 6.867 0 39.007c0 32.038.008 33.431.142 33.919a6.704 6.704 0 002.046 3.203c.55.472 1.66 1.047 2.416 1.26.488.133 1.983.14 33.918.14H71.93l.63-.18c2.093-.606 3.754-2.298 4.344-4.423.134-.488.142-1.983.142-33.919 0-32.037-.008-33.43-.142-33.918A6.416 6.416 0 0072.598.666l-.59-.18-33.25-.009C20.47.47 5.407.485 5.273.501zm8.184 13.403L3.07 24.291l-.023-8.87c-.016-6.382 0-9.01.07-9.348A3.08 3.08 0 015.43 3.625c.3-.07 2.62-.102 9.404-.102l9.011-.008-10.388 10.388zM45.841 3.57c0 .094-25.293 25.364-25.38 25.364-.047 0-2.062-1.983-4.485-4.407l-4.408-4.407 8.303-8.303 8.303-8.302h8.83c4.863 0 8.837.024 8.837.055zm25.805.055c.079.047-2.62 2.794-10.427 10.6L50.68 24.764l-5.406-5.406-5.415-5.415 5.218-5.217 5.21-5.21 10.624.016c5.957.015 10.671.055 10.734.094zm2.322 2.573c.023.134.047 4.927.047 10.648v10.396L55.56 45.697 37.106 64.15l-5.367-5.375-5.375-5.367L50.09 29.682C63.139 16.634 73.84 5.955 73.865 5.955c.032 0 .071.11.103.243zm-25.53 20.73c0 .039-10.175 10.254-22.617 22.696C9.066 66.378 3.187 72.21 3.14 72.13c-.04-.063-.079-4.777-.094-10.734L3.03 50.773l17.329-17.33 17.337-17.336 5.367 5.367c2.96 2.959 5.375 5.406 5.375 5.453zm-34.61-.221c2.415 2.416 4.39 4.423 4.39 4.47 0 .087-15.039 15.15-15.133 15.15-.032 0-.055-3.975-.055-8.83v-8.838l3.163-3.164c1.748-1.747 3.188-3.171 3.211-3.171.024 0 2.015 1.975 4.423 4.383zm56.291 26.545l-3.895 3.895-4.423-4.43-4.43-4.423 8.302-8.303 8.302-8.302.024 8.83.016 8.837-3.896 3.896zM56.465 66.945l-7.594 7.547-8.853.008h-8.854l12.002-12.001 12-12.002 4.447 4.455 4.447 4.446-7.595 7.547zm17.471 4.997a3.11 3.11 0 01-2.424 2.471c-.29.063-3.03.087-9.325.087h-8.909l10.349-10.35 10.348-10.348.024 8.83c.016 6.327 0 8.97-.063 9.31zM29.59 60.964l5.352 5.351-4.093 4.093-4.092 4.092-10.6-.016c-5.824-.015-10.625-.055-10.656-.086-.055-.055 18.588-18.785 18.698-18.785.024 0 2.448 2.408 5.391 5.351z" fill="#9D0B1D"/></svg>