<svg width="70" height="71" fill="none" xmlns="http://www.w3.org/2000/svg"><path d="M.833 1.234c-.278.278-.278.46-.278 34.276 0 33.817 0 33.998.278 34.277.279.278.46.278 34.277.278h33.984l.292-.306c.279-.307.279-.418.279-11.955V46.14l-.32-.292-.32-.307H47.37V34.674c0-10.687 0-10.868-.278-11.147-.279-.278-.46-.278-11.078-.278H25.218V12.673c0-10.896-.014-11.286-.557-11.579-.168-.083-4.57-.139-11.9-.139-11.467 0-11.648 0-11.927.279zm22.015 11.983v10.032H2.923V3.184h19.925v10.033zM22.71 35.51v10.032H2.923V25.478H22.71V35.51zm22.294 0v10.032H25.217V25.478h19.786V35.51zM22.709 57.804v10.032H2.923V47.772H22.71v10.032zm22.294 0v10.032H25.217V47.772h19.786v10.032zm22.293 0v10.032H47.371V47.772h19.925v10.032z" fill="#9D0B1D"/><path d="M19.783 4.578c-.278.278-.278.46-.278 7.803v7.524H11.98c-7.343 0-7.524 0-7.802.278-.377.377-.377 1.296 0 1.672.278.28.46.28 8.583.28 5.141 0 8.388-.057 8.555-.14.53-.279.557-.78.557-8.778s-.028-8.5-.557-8.779c-.446-.236-1.226-.167-1.533.14zm0 22.294c-.278.278-.278.46-.278 7.802v7.524H11.98c-7.343 0-7.524 0-7.802.279-.377.376-.377 1.296 0 1.672.278.279.46.279 8.583.279 5.141 0 8.388-.056 8.555-.14.53-.278.557-.78.557-8.778s-.028-8.5-.557-8.778c-.446-.237-1.226-.167-1.533.14zm22.293 0c-.279.278-.279.46-.279 7.802v7.524h-7.524c-7.343 0-7.524 0-7.802.279-.377.376-.377 1.296 0 1.672.278.279.46.279 8.583.279 5.141 0 8.388-.056 8.555-.14.53-.278.557-.78.557-8.778s-.028-8.5-.557-8.778c-.446-.237-1.226-.167-1.533.14zM19.783 49.165c-.278.279-.278.46-.278 7.803v7.524H11.98c-7.343 0-7.524 0-7.802.279-.377.376-.377 1.296 0 1.672.278.278.46.278 8.583.278 5.141 0 8.388-.055 8.555-.139.53-.279.557-.78.557-8.778s-.028-8.5-.557-8.778c-.446-.237-1.226-.167-1.533.14zm22.293 0c-.279.279-.279.46-.279 7.803v7.524h-7.524c-7.343 0-7.524 0-7.802.279-.377.376-.377 1.296 0 1.672.278.278.46.278 8.583.278 5.141 0 8.388-.055 8.555-.139.53-.279.557-.78.557-8.778s-.028-8.5-.557-8.778c-.446-.237-1.226-.167-1.533.14zm22.294 0c-.278.279-.278.46-.278 7.803v7.524h-7.524c-7.343 0-7.524 0-7.803.279-.181.18-.279.46-.279.836 0 .376.098.655.279.836.279.278.46.278 8.583.278 5.142 0 8.388-.055 8.555-.139.53-.279.558-.78.558-8.778s-.028-8.5-.558-8.778c-.446-.237-1.226-.167-1.532.14zM26.82 2.07c-.586.223-.836.878-.6 1.546.07.223.251.474.39.544.168.083 3.79.14 9.657.14h9.39l.293-.321c.32-.349.404-1.045.167-1.491-.07-.14-.334-.32-.57-.404-.53-.181-18.281-.21-18.727-.014zm0 4.458c-.586.223-.836.878-.6 1.547.07.223.251.474.39.544.168.083 3.79.139 9.657.139h9.39l.293-.32c.32-.349.404-1.046.167-1.492-.07-.139-.334-.32-.57-.404-.53-.18-18.281-.209-18.727-.014zm.138 4.417c-.668.168-.989.864-.738 1.603.084.223.25.46.39.53.167.083 3.79.139 9.656.139h9.391l.293-.32c.32-.35.404-1.046.167-1.492-.293-.53-.725-.557-9.949-.543-4.918.014-9.056.056-9.21.083zm0 4.459c-.668.167-.989.864-.738 1.602.084.224.25.46.39.53.167.084 3.79.14 9.656.14h9.391l.293-.321c.32-.349.404-1.045.167-1.491-.293-.53-.725-.557-9.949-.543-4.918.014-9.056.055-9.21.083zm0 4.459c-.668.167-.989.864-.738 1.602.084.223.25.46.39.53.167.083 3.79.14 9.656.14h9.391l.293-.321c.32-.349.404-1.045.167-1.491-.293-.53-.725-.558-9.949-.544-4.918.014-9.056.056-9.21.084z" fill="#9D0B1D"/></svg>