<svg width="70" height="75" fill="none" xmlns="http://www.w3.org/2000/svg"><path d="M9.093.66c-.754.406-.885 1.29-.276 1.87.348.334.478.348 2.522.392l2.16.058.043 2.087c.044 2.058.044 2.087.45 2.478.376.392.478.406 1.985.45 1.363.043 1.595.087 1.595.29 0 .145.13.521.275.855l.275.608-3.45 8.668-3.449 8.682-.87.87c-.478.478-1.014 1.16-1.188 1.507-1.247 2.435-.855 5.305.986 7.276.782.826 1.521 1.305 2.71 1.71.797.276 1.217.29 8.653.29h7.812l.348-.362c.305-.29.363-.493.363-1.232v-.87h11.74v2.175c0 1.507.058 2.333.203 2.652.26.652 1.145 1.391 1.797 1.493l.536.087v5.652l.406.348c.536.464 1.116.45 1.61-.029l.376-.391v-5.551l.667-.174c.826-.218 1.565-.928 1.782-1.696.087-.319.16-1.594.16-2.84 0-2.16.014-2.262.362-2.74.768-1.03 1.058-3.03.638-4.32-.246-.782-1.073-1.97-1.681-2.434-.841-.638-2.03-1.073-3.015-1.073-1.13 0-1.84.203-2.783.812l-.768.492h-12.03v-.927c0-.797-.044-.971-.377-1.305l-.392-.377h-3.45c-1.912 0-3.463-.029-3.463-.072s1.348-3.392 2.985-7.436c1.885-4.667 3.19-7.652 3.552-8.189.304-.464.666-1.188.797-1.623l.246-.768 1.566-.058c2.26-.073 2.45-.32 2.45-3.334V2.98l2.188-.058 2.188-.044.348-.406c.536-.623.377-1.507-.333-1.826C37.849.43 9.512.43 9.092.661zm22.393 3.595V5.56H15.977V2.95h15.509v1.304zm-4.058 3.87c0 .305-.841 1.42-1.348 1.797-1.58 1.146-3.667 1.03-5.073-.29-.363-.318-.971-1.29-.971-1.536 0-.043 1.666-.072 3.696-.072 2.029 0 3.696.043 3.696.101zm-6.972 4.088c.783.565 2.16.913 3.377.855.623-.03 1.13-.015 1.13.029 0 .029-1.188 2.986-2.637 6.551l-2.624 6.493h-2.754c-2.55 0-2.739-.014-2.652-.26 1.087-2.9 5.551-13.944 5.638-13.944.073 0 .304.13.522.276zm6.972 16.378c.217.014.246 1.406.16 7.218l-.015.623h-3.914c-2.145 0-3.913-.029-3.913-.072 0-.03.16-.304.362-.594.536-.783.942-2.261.942-3.378 0-1.043-.464-2.58-1-3.319-.16-.246-.304-.464-.304-.492 0-.044 7.073-.03 7.682.014zm-10.74.493c1.318.87 1.913 1.913 1.913 3.333 0 1.595-.754 2.856-2.13 3.523-2.624 1.275-5.61-.58-5.596-3.48 0-1.39.58-2.492 1.667-3.217.84-.55 1.189-.638 2.45-.58.913.03 1.217.102 1.695.42zm30.031 1.058c.58.29 1.261 1.16 1.377 1.725.464 2.522-2.362 4.203-4.319 2.565-.565-.478-.84-1.13-.84-1.986 0-1.97 2.014-3.203 3.782-2.304zm-6.174 2.304v1.377H30.037V31.07h10.508v1.376zm6.305 6.334v1.42h-2.754v-2.825h2.754v1.406zM11.383 52.144l-.406.348v4.334l-1.45.087c-3.101.174-5.594 1.507-7.203 3.84C-.763 65.248.86 71.437 5.76 73.784c2.03.957.32.914 29.496.914 29.162 0 27.466.043 29.496-.913 2.898-1.377 4.797-4.218 4.971-7.45.087-1.58-.13-2.798-.696-4.059-1.492-3.275-4.29-5.145-8.044-5.362l-1.45-.087v-4.334l-.405-.348c-.406-.348-.45-.348-3.348-.348-2.769 0-2.972.015-3.334.304l-.377.29v4.479H49.33l-.044-2.16c-.043-2.058-.058-2.188-.391-2.536l-.348-.377h-3.03c-3.956 0-3.739-.174-3.739 2.899v2.174h-2.754v-2.044c0-2.043-.087-2.478-.565-2.84-.16-.13-1.087-.174-3.203-.174-2.116 0-3.044.043-3.203.174-.479.362-.566.797-.566 2.84v2.044h-2.753v-2.174c0-3.073.217-2.899-3.74-2.899h-3.03l-.347.377c-.333.348-.348.478-.391 2.536l-.044 2.16h-2.739v-4.48l-.377-.29c-.363-.29-.565-.304-3.334-.304-2.899 0-2.942 0-3.348.348zm4.74 3.377v1.348h-2.754V54.13l1.377.029 1.377.014v1.348zm10.261 0l.044 1.348H23.66v-2.71l1.348.014 1.333.015.043 1.333zm10.175-.014v1.362H33.95v-2.768l1.305.029 1.304.014v1.363zm10.291 0v1.362h-2.754v-1.275c0-.71.03-1.32.073-1.363.043-.043.667-.072 1.377-.072h1.304v1.348zm10.291-.015v1.377h-2.754v-2.71l1.377-.015 1.377-.029v1.377zm5.29 4.044c3.928.928 6.016 5.32 4.29 9-.767 1.639-2.057 2.784-3.855 3.407-.826.29-1.203.29-27.611.29-25.872 0-26.8-.014-27.568-.275-1.174-.406-1.594-.653-2.493-1.479-1.507-1.377-2.276-3.594-1.957-5.638.392-2.551 2.334-4.696 4.769-5.29 1.217-.29 53.165-.305 54.426-.015z" fill="#9D0B1D"/><path d="M8.078 62.42c-1.449.696-2.16 1.827-2.174 3.436 0 2.072 1.61 3.652 3.71 3.652 2.015 0 3.58-1.478 3.726-3.536.101-1.348-.797-2.9-2.058-3.552-.247-.13-.899-.26-1.464-.29-.855-.043-1.13 0-1.74.29zm2.508 2.522a1.27 1.27 0 01-.13 1.841c-.595.507-1.204.493-1.74-.043-.696-.71-.536-1.74.348-2.116.58-.247 1.102-.145 1.522.318zm7.769-2.58c-2.9 1.32-2.928 5.58-.044 6.827 3.058 1.305 6.146-1.536 5.073-4.696-.638-1.87-3.203-2.957-5.03-2.13zm1.942 2.203c1.319.45 1.116 2.32-.276 2.537-.434.072-.608.014-1-.333-.362-.334-.463-.522-.463-.957 0-.58.318-1.058.826-1.275.391-.16.405-.16.913.028zm8.174-2.101c-1.319.652-2.058 1.84-2.058 3.319 0 1.84 1.174 3.29 2.971 3.667 2.218.464 4.392-1.203 4.436-3.42.029-1.276-.348-2.247-1.189-3.03-1.044-.957-2.84-1.189-4.16-.536zm2.203 2.145c.841.348 1.044 1.45.377 2.116-1.203 1.203-3.015-.522-1.898-1.797.217-.247.652-.493.927-.508.058-.014.319.073.594.189zm8.205-2.218c-.769.348-1.218.74-1.682 1.45-.623 1-.696 2.666-.145 3.71.247.464 1.174 1.377 1.638 1.623 1.363.696 3.406.305 4.493-.87 1.305-1.42 1.16-4.058-.29-5.29-1.13-.956-2.739-1.203-4.014-.623zm2.42 2.479c.42.391.522.898.275 1.464-.347.855-1.449 1.058-2.116.391-1.232-1.232.566-3.044 1.841-1.855zm7.798-2.45c-2.392 1.145-2.928 4.189-1.073 6.03 1.058 1.072 2.71 1.362 4.174.739 2.349-1.015 2.914-4.203 1.073-6.03-.71-.724-1.304-.97-2.435-1.029-.84-.043-1.13 0-1.74.29zm2.014 2.13c1.073.407 1.116 2.044.073 2.465-.855.362-1.87-.276-1.87-1.189 0-.594.246-.97.768-1.203.566-.246.58-.246 1.03-.072zm8.479-2.274c-3.029 1.13-3.26 5.42-.362 6.84 1.855.914 3.957.247 4.957-1.55.536-1 .594-2.464.102-3.392-.392-.725-1.088-1.42-1.769-1.754-.666-.319-2.246-.39-2.928-.145zm1.827 2.333c.913.377 1.087 1.406.377 2.13-.537.537-1.145.551-1.74.044-.362-.29-.449-.493-.449-.927 0-.624.42-1.247.913-1.348a2.28 2.28 0 00.362-.087c.015 0 .261.072.537.188z" fill="#9D0B1D"/></svg>