<svg width="82" height="82" fill="none" xmlns="http://www.w3.org/2000/svg"><path d="M18.402.368c-1.09.721-1.105.85-1.105 6.871v5.413H31.31l6.327-6.326L43.963 0H18.947l-.545.368zm50.225 12.925L81.92 26.586l.048-12.444C82.016.288 82.064 1.009 80.959.32 80.446.016 80.11 0 67.89 0H55.334l13.293 13.293zM48.688 2.098c-.4.16-10.57 10.202-10.57 10.426 0 .08 5.236.128 11.642.128h11.66l-5.125-5.14c-2.819-2.835-5.35-5.238-5.638-5.366-.592-.256-1.393-.272-1.97-.048zM1.281 17.585c-.304.144-.72.513-.913.817L0 18.946v28.332l1.073-.096c5.718-.593 11.771-3.043 16.384-6.63 6.582-5.142 11.099-12.845 12.156-20.773.096-.704.208-1.553.256-1.89l.08-.592H15.903c-13.068 0-14.093.016-14.622.288zm33.473.048c0 .737.512 3.828.897 5.301 2.642 10.539 10.73 19.267 20.996 22.695 2.018.672 5.093 1.36 6.983 1.553l1.073.096V33.232c0-15.535.048-14.734-1.025-15.503l-.496-.352-14.206-.048-14.222-.032v.336zm34.594 14.59c0 6.423.048 11.66.128 11.66.064 0 2.434-2.323 5.269-5.173 5.573-5.574 5.525-5.51 5.253-6.967-.096-.512-.8-1.281-5.381-5.878l-5.27-5.285v11.643zM31.951 28.78c-.592 1.586-2.354 4.869-3.571 6.71a37.595 37.595 0 01-11.916 11.324c-1.537.913-3.956 2.114-5.125 2.53-.336.112-.609.256-.609.32s.417.273.93.48c6.47 2.563 12.892 7.88 16.912 13.967 1.073 1.65 2.61 4.532 3.219 6.07.24.608.48 1.088.545 1.088.064 0 .208-.272.32-.608 1.778-4.98 6.566-11.467 11.147-15.087 2.658-2.114 6.71-4.484 9.61-5.637l.64-.256-.721-.289c-9.113-3.715-16.624-11.083-20.34-19.923-.288-.657-.56-1.266-.624-1.33-.08-.064-.257.225-.417.641zm43.691 15.615l-6.294 6.294v14.03l5.59-.048c5.396-.048 5.62-.064 6.053-.384 1.073-.801 1.009.032.977-13.742l-.048-12.428-6.278 6.278zM0 66.257c0 13.661.016 14.237.304 14.686.16.24.513.593.753.753.448.288 1.025.304 14.686.304h14.238l-.096-.432c-.032-.257-.128-.881-.176-1.41-.16-1.49-.689-3.828-1.313-5.765-3.155-9.818-10.971-17.634-20.789-20.789-1.937-.624-4.276-1.153-5.765-1.313-.529-.048-1.153-.144-1.394-.176L0 52.019v14.238zm62.781-13.966c-4.949.689-9.465 2.37-13.453 4.997-5.093 3.363-8.825 7.623-11.467 13.1-1.586 3.284-2.69 7.112-3.043 10.523L34.722 82h28.331l.545-.368c1.169-.77 1.105.144 1.105-15.535 0-11.131-.048-14.046-.192-14.03-.112.016-.897.112-1.73.224z" fill="#9D0B1D"/></svg>