<svg width="78" height="79" fill="none" xmlns="http://www.w3.org/2000/svg"><path d="M37.865.97l-.343.329v3.067c0 2.848.014 3.08.274 3.34.589.644 1.63.575 2.054-.136.246-.398.274-.699.274-3.286V1.422l-.397-.397c-.534-.534-1.37-.561-1.862-.055zm-9.748 2.602c-.712.301-.931 1.054-.534 1.82.233.439 3.998 4.176 4.422 4.396.41.205 1.027.191 1.37-.055.424-.301.629-1.027.451-1.52-.192-.507-4.011-4.354-4.6-4.641-.52-.247-.548-.247-1.11 0zm22.549-.11c-.11.041-1.232 1.095-2.492 2.341-2.273 2.246-2.3 2.287-2.3 2.875 0 .78.48 1.26 1.287 1.26.534 0 .63-.082 2.848-2.3 2.163-2.163 2.3-2.328 2.3-2.807 0-.698-.206-1.04-.753-1.273-.493-.206-.561-.206-.89-.096zM27.049 18.098c-6.777 4.641-13.184 9.036-14.239 9.748C-.224 36.759.748 36.074.57 36.47c-.424.904-.164 1.287 1.931 2.807l1.328.958-.507.37c-.273.191-.985.684-1.56 1.068C.598 42.454.42 42.687.42 43.37c0 .59.178.78 1.971 2.095l1.452 1.068-1.493 1C1.53 48.08.762 48.67.64 48.847c-.37.52-.274 1.15.233 1.67.232.26 8.803 6.668 19.044 14.239C37.523 77.79 38.549 78.53 39.083 78.53c.534 0 1.589-.753 19.318-13.897 10.35-7.653 18.894-14.087 19.072-14.32.63-.89.342-1.383-1.506-2.684-.808-.575-1.479-1.081-1.479-1.122 0-.055.657-.575 1.452-1.164 1.67-1.26 1.903-1.534 1.78-2.19-.11-.535-.466-.89-2.109-2.04-.616-.439-1.123-.836-1.123-.89.014-.055.685-.59 1.506-1.192 1.67-1.232 1.903-1.56 1.67-2.368-.136-.452-.506-.753-3.34-2.78A16033.26 16033.26 0 0156.581 21.22c-7.996-5.709-14.924-10.651-15.376-10.98-.616-.424-.972-.575-1.341-.575-.438 0-2.04 1.054-12.815 8.434zm17.018-2.547c2.259 1.616 4.107 2.944 4.093 2.958-.013.013-2.546 1.944-5.64 4.312-5.45 4.162-6.202 4.724-9.516 7.256l-1.574 1.205-6.572-1.82c-3.614-1-6.654-1.849-6.75-1.876-.15-.055 21.578-15.047 21.756-15.006.04.014 1.93 1.356 4.203 2.971zM60.332 27.19c.287.219.11.37-8.27 6.79-17.565 13.445-25.67 19.633-25.725 19.633-.137 0-9.899-7.31-9.899-7.407 0-.054 2.177-1.766 4.833-3.792a1394.73 1394.73 0 015.436-4.176c.342-.26 3.025-2.314 5.955-4.559 6.832-5.216 7.147-5.463 12.91-9.885l4.847-3.696 4.806 3.436c2.656 1.876 4.956 3.532 5.107 3.656zm8.981 6.393l4.874 3.505-2.683 1.985c-1.493 1.096-3.492 2.588-4.477 3.314-9.023 6.694-18.73 13.855-18.867 13.896-.123.055-.492-1.807-1.41-6.941l-1.232-7.01.63-.493c1.862-1.41 4.477-3.41 5.75-4.395.794-.602 2.122-1.615 2.944-2.245.835-.63 2.984-2.287 4.792-3.67l3.285-2.518.753.533a807.78 807.78 0 005.641 4.04zM21.82 31.364a1068.03 1068.03 0 006.86 1.89c.068.027-.877.808-2.11 1.752-1.218.931-2.6 1.985-3.066 2.355-5.819 4.504-9.447 7.202-9.584 7.092-.082-.069-2.355-1.753-5.038-3.751l-4.888-3.628 2.629-1.794c1.451-.972 3.916-2.67 5.504-3.765 1.588-1.082 2.889-1.985 2.916-1.985.014-.014 3.067.821 6.777 1.834zM16.877 49.93c13.513 10.022 13.485 9.995 17.428 12.925 3.738 2.779 4.395 3.217 4.778 3.217.384 0 .794-.26 3.245-2.081 1.164-.863 4.354-3.231 7.106-5.257 7.38-5.463 18.113-13.431 20.481-15.211 1.15-.849 2.15-1.547 2.246-1.547.192 0 1.917 1.218 1.917 1.355 0 .123 1.601-1.081-18.004 13.431A12846.426 12846.426 0 0139.22 69.234c-.123.11-6.311-4.436-33.16-24.357-1.067-.794-1.93-1.492-1.916-1.56.04-.124 1.766-1.315 1.917-1.328.04-.014 4.915 3.56 10.816 7.94zm27.354.192c.534 3.012 1.068 6.01 1.178 6.681.123.657.191 1.273.15 1.383-.055.137-5.654 4.367-6.352 4.778-.096.069-2.04-1.287-4.93-3.436a798.27 798.27 0 00-5.216-3.847c-.396-.274-.438-.343-.26-.52.096-.11 3.355-2.616 7.23-5.573 5.626-4.313 7.05-5.34 7.132-5.161.055.123.534 2.683 1.068 5.695zm29.217-1.054l.78.547-.452.315c-.246.178-7.447 5.504-15.99 11.83a11779.182 11779.182 0 01-17.129 12.69l-1.575 1.164-16.36-12.103C13.728 56.843 5.869 51.025 5.239 50.573c-.616-.466-1.123-.876-1.123-.931 0-.11 1.506-1.191 1.821-1.315.137-.054 5.696 3.985 16.128 11.734 8.763 6.503 16.142 11.938 16.416 12.089.328.178.616.233.849.178.192-.055 7.653-5.504 16.552-12.13C70.805 49.122 72.12 48.177 72.38 48.34c.15.096.63.425 1.068.726z" fill="#9D0B1D"/></svg>