<svg width="75" height="76" fill="none" xmlns="http://www.w3.org/2000/svg"><path d="M32.92 2.69L28.9 5.346l-4.048-.235c-5.355-.308-5.737-.308-6.22.073-.25.191-1.145 1.82-2.524 4.548l-2.127 4.24-4.225 2.127c-2.758 1.38-4.343 2.245-4.548 2.509-.381.484-.396 1.027-.073 6.367l.22 3.917-2.597 3.931C1.335 34.994.118 36.946.044 37.18a1.93 1.93 0 000 .822c.073.22 1.291 2.171 2.7 4.328l2.596 3.93-.264 4.65c-.161 2.656-.22 4.842-.147 5.106.059.25.264.587.44.748.191.176 2.172 1.232 4.43 2.347l4.094 2.04 2.215 4.313c1.511 2.934 2.347 4.4 2.626 4.606.396.294.41.294 5.281.03l4.886-.265 4.034 2.656c3.565 2.362 4.093 2.655 4.62 2.655.544 0 1.057-.293 4.651-2.655l4.05-2.641 4.811.25c4.196.22 4.87.234 5.252.043.367-.176.778-.865 2.64-4.533l2.201-4.327 4.328-2.216c3.55-1.819 4.372-2.303 4.607-2.684.249-.44.264-.602.029-4.607-.132-2.274-.235-4.474-.235-4.885 0-.704.088-.88 2.568-4.621 3.388-5.12 3.374-4.225.058-9.272-1.379-2.098-2.538-3.902-2.582-4.02-.044-.102.03-2.244.176-4.738.147-2.494.206-4.768.162-5.032-.059-.279-.206-.601-.352-.733-.132-.118-2.142-1.189-4.46-2.377l-4.21-2.142-2.172-4.269c-1.467-2.86-2.318-4.372-2.582-4.577-.396-.293-.41-.293-5.325-.03l-4.93.25-3.77-2.48C40.403 1.489 38.569.286 38.392.198c-.176-.088-.572-.162-.88-.162-.47 0-1.144.396-4.592 2.655zm8.656 3.536c1.892 1.247 3.608 2.303 3.814 2.347.205.059 2.347-.014 4.768-.161l4.4-.235 1.996 3.932c1.1 2.171 2.127 4.063 2.274 4.21.161.147 2.039 1.174 4.21 2.274l3.917 2.01v.675c0 .381-.102 2.406-.22 4.518-.147 2.465-.176 3.961-.088 4.196.073.19 1.188 1.951 2.494 3.902 1.306 1.951 2.362 3.61 2.362 3.697 0 .073-1.056 1.731-2.362 3.697S66.721 45 66.647 45.19c-.088.22-.044 2.025.117 4.812.147 2.743.191 4.519.103 4.592-.073.073-1.907 1.027-4.064 2.142-3.168 1.628-4.005 2.112-4.225 2.48-.146.248-1.114 2.097-2.127 4.121-1.027 2.01-1.863 3.668-1.878 3.683-.014 0-1.995-.103-4.415-.235-2.597-.147-4.577-.19-4.842-.117-.234.058-2.083 1.203-4.093 2.523l-3.652 2.406-3.536-2.362c-1.951-1.291-3.74-2.435-3.99-2.538-.367-.147-1.233-.147-4.944.059l-4.504.249-2.098-4.108-2.083-4.107-4.064-2.054c-2.23-1.13-4.093-2.083-4.122-2.127-.044-.044.015-1.6.132-3.448.103-1.863.19-3.976.205-4.694v-1.32L6.073 41.36l-2.479-3.77 2.48-3.77 2.493-3.77v-1.32c-.014-.734-.102-2.862-.205-4.71-.117-1.863-.176-3.403-.132-3.448.03-.044 1.893-.997 4.122-2.127l4.064-2.054 2.083-4.107 2.069-4.108 4.533.25c4.372.234 4.533.234 5.105-.03.323-.146 2.113-1.29 3.961-2.538 3.037-2.039 3.404-2.259 3.668-2.083a666.25 666.25 0 013.74 2.45z" fill="#9D0B1D"/><path d="M35.267 14.28c-9.624.924-17.751 7.805-20.304 17.164-2.64 9.727 1.262 20.113 9.668 25.688a23.453 23.453 0 0020.465 2.655c3.565-1.203 6.528-3.066 9.198-5.78 3.521-3.58 5.737-8.054 6.514-13.115.22-1.511.22-5.09 0-6.602-1.174-7.658-5.78-14.098-12.602-17.575-2.728-1.393-5.428-2.17-8.553-2.45-1.877-.161-2.581-.161-4.386.015zm6.382 3.58c7.907 1.628 13.995 7.76 15.726 15.814.382 1.717.367 6.132 0 7.878-1.481 6.91-6.323 12.558-12.836 14.95-11.34 4.165-23.78-2.568-26.568-14.363-2.127-8.993 2.318-18.397 10.694-22.592 3.859-1.937 8.73-2.568 12.984-1.687z" fill="#9D0B1D"/><path d="M46.197 30.388c-.396.25-2.2 1.936-9.272 8.64l-2.23 2.113-2.816-2.875c-1.98-2.04-2.934-2.905-3.272-2.993-.865-.235-1.878.323-2.039 1.115-.176.924 0 1.174 3.462 4.71 1.849 1.907 3.55 3.579 3.756 3.71.499.338 1.144.338 1.702 0 .704-.44 12.968-12.058 13.07-12.41.28-.88-.029-1.717-.747-2.069-.631-.293-1.071-.278-1.614.059z" fill="#9D0B1D"/></svg>