<svg width="82" height="82" fill="none" xmlns="http://www.w3.org/2000/svg"><g clip-path="url(#clip0_1_824)" fill="#9D0B1D"><path d="M4.725.368C2.819 1.073 1.505 2.29.593 4.164L.08 5.205.032 21.893 0 38.598h7.367v-.77c0-.431.144-1.344.32-2.05 1.202-4.676 4.805-8.055 9.578-8.968 1.49-.288 2.578-.288 4.068 0 5.349 1.025 9.401 5.397 9.85 10.619l.096 1.169h7.319V26.586h2.93c3.156 0 3.908-.128 5.382-.88 2.61-1.314 4.212-4.581 3.715-7.544-.416-2.45-1.89-4.405-4.132-5.478l-1.249-.592-3.315-.048-3.331-.064V0L22.15.016H5.686l-.961.352z"/><path d="M17.665 31.47c-2.178.481-3.972 1.923-4.98 4.037l-.593 1.249-.048 3.315-.064 3.331H0l.032 16.689.048 16.704.513 1.057c.928 1.89 2.338 3.155 4.292 3.828.913.32 1.33.32 17.329.32h16.384v-7.367h-.77c-1.921 0-4.836-1.137-6.63-2.579-6.021-4.836-6.102-13.5-.16-18.578 1.714-1.457 4.821-2.706 6.79-2.706h.77v-7.368H26.586v-2.93c0-1.922-.08-3.188-.224-3.716-.721-2.707-2.819-4.725-5.494-5.285-1.313-.289-1.905-.289-3.203 0z"/><path d="M43.402 49.408v6.006h-2.914c-3.172 0-3.924.128-5.398.88-2.61 1.314-4.212 4.581-3.715 7.544.416 2.45 1.89 4.405 4.132 5.478l1.249.592 3.331.048 3.315.064V82l16.705-.032 16.688-.048 1.057-.513c1.89-.928 3.155-2.338 3.828-4.292.32-.913.32-1.33.32-17.329V43.402H69.828v2.947c0 2.45-.048 3.123-.304 3.924-.817 2.627-3.043 4.548-5.846 5.029-2.594.448-5.67-1.041-7.095-3.427-.832-1.394-1.009-2.403-1.009-5.622v-2.85H43.402v6.005z"/></g><defs><clipPath id="clip0_1_824"><path fill="#fff" d="M0 0h82v82H0z"/></clipPath></defs></svg>