<svg width="82" height="82" fill="none" xmlns="http://www.w3.org/2000/svg"><path d="M38.15.384c-6.423 2.082-8.425 10.33-3.652 15.087 1.153 1.137 2.018 1.714 3.363 2.226l.737.288v8.681h4.804v-8.68l.737-.289c1.345-.512 2.21-1.089 3.363-2.226 1.73-1.73 2.627-3.908 2.627-6.422A9.065 9.065 0 0043.803.384c-1.682-.528-3.988-.528-5.654 0zM16.048 9.61c-.641.16-1.554.512-2.002.752-1.217.64-3.155 2.643-3.764 3.86-1.393 2.835-1.265 6.294.336 9.049 1.041 1.777 3.364 3.475 5.494 4.036 1.858.48 4.612.24 6.118-.545l.592-.32 3.123 3.09 3.123 3.092 1.778-1.794 1.778-1.81-3.091-3.09-3.091-3.076.304-.592c.737-1.458 1.009-3.924.625-5.798-.289-1.441-1.33-3.347-2.419-4.436-1.745-1.778-3.587-2.579-6.134-2.675-1.249-.048-1.858 0-2.77.256zm45.692-.16a9.026 9.026 0 00-6.31 4.852c-.336.72-.705 1.698-.8 2.162-.385 1.874-.113 4.34.624 5.798l.304.592-3.091 3.075-3.091 3.091 1.778 1.81 1.777 1.794 3.123-3.091 3.123-3.091.593.32c1.506.785 4.212 1.025 6.118.529 2.146-.56 4.436-2.227 5.493-4.02 1.602-2.755 1.73-6.214.337-9.05-.609-1.216-2.547-3.218-3.764-3.859-1.698-.897-4.324-1.281-6.214-.913zM38.437 31.47c-3.395.93-6.134 3.732-6.982 7.128-.353 1.425-.24 4.34.224 5.653.769 2.13 2.418 4.1 4.34 5.221 1.762 1.025 2.514 1.218 4.98 1.218 2.467 0 3.22-.193 4.982-1.218 1.954-1.137 3.683-3.25 4.404-5.429.24-.689.304-1.361.304-3.043 0-2.466-.192-3.22-1.217-4.98-1.12-1.923-3.09-3.572-5.22-4.341-1.234-.448-4.517-.56-5.815-.208zm-31.79.705c-2.147.609-4.036 1.986-5.19 3.764-2.434 3.732-1.777 9.017 1.49 11.884 4.885 4.26 12.444 2.386 14.75-3.684l.289-.737h8.68v-4.804h-8.68l-.289-.737c-.8-2.082-2.61-4.148-4.404-4.997-2.146-1.009-4.645-1.265-6.646-.689zm63.886 0c-2.915.833-5.157 2.883-6.23 5.686l-.288.737h-8.681v4.804h8.68l.289.737c.512 1.345 1.089 2.21 2.226 3.363 4.02 4.036 10.907 3.332 14.014-1.441 2.434-3.732 1.777-9.017-1.49-11.884-1.009-.88-2.594-1.713-3.876-2.05-1.28-.336-3.395-.304-4.644.048zM25.93 52.467l-3.076 3.091-.592-.304c-1.458-.737-3.924-1.01-5.798-.625-.464.096-1.441.465-2.162.801-2.915 1.425-4.757 4.212-4.965 7.527-.176 2.787.673 5.061 2.659 7.047 1.986 1.986 4.26 2.835 7.047 2.659 3.315-.208 6.102-2.05 7.527-4.965.336-.72.705-1.698.8-2.162.385-1.874.113-4.372-.624-5.798l-.304-.56 3.09-3.123 3.092-3.123-1.794-1.778-1.81-1.778-3.09 3.091zm25.224-1.297l-1.778 1.81 3.091 3.09 3.091 3.076-.304.592c-.737 1.458-1.01 3.924-.625 5.798.096.464.465 1.441.8 2.162 1.426 2.915 4.213 4.757 7.528 4.965 2.787.176 5.061-.673 7.047-2.659 1.986-1.986 2.835-4.26 2.659-7.047-.209-3.315-2.05-6.102-4.965-7.527-.72-.336-1.698-.705-2.162-.8-1.874-.385-4.373-.113-5.798.624l-.56.304-3.123-3.09-3.124-3.092-1.777 1.794zm-12.556 8.504v4.34l-.737.289c-1.345.512-2.21 1.089-3.363 2.226-4.036 4.02-3.332 10.907 1.441 14.014 3.732 2.434 9.017 1.777 11.884-1.49 4.26-4.885 2.386-12.444-3.684-14.75l-.737-.288v-8.681h-4.804v4.34z" fill="#9D0B1D"/></svg>