<svg width="10" height="15" fill="none" xmlns="http://www.w3.org/2000/svg"><g clip-path="url(#clip0_1_363)"><path d="M5 .5C2.243.5 0 2.775 0 5.57c0 3.47 4.475 8.563 4.665 8.779a.446.446 0 00.67 0C5.525 14.133 10 9.039 10 5.57 10 2.775 7.757.5 5 .5zm0 7.621c-1.387 0-2.516-1.144-2.516-2.55 0-1.407 1.129-2.552 2.516-2.552S7.516 4.164 7.516 5.57c0 1.407-1.129 2.551-2.516 2.551z" fill="#9D0B1D"/></g><defs><clipPath id="clip0_1_363"><path fill="#fff" transform="translate(0 .5)" d="M0 0h10v14H0z"/></clipPath></defs></svg>