<svg width="30" height="30" fill="none" xmlns="http://www.w3.org/2000/svg"><g clip-path="url(#clip0_1_762)" fill="#9D0B1D" stroke="#9D0B1D"><path d="M14.777 13.104c1.83 0 3.319-1.49 3.319-3.319 0-1.83-1.49-3.319-3.32-3.319a3.323 3.323 0 00-3.318 3.319 3.323 3.323 0 003.319 3.319zm0-5.69a2.373 2.373 0 012.37 2.371 2.373 2.373 0 01-2.37 2.37 2.373 2.373 0 01-2.37-2.37 2.373 2.373 0 012.37-2.37z" stroke-width=".4"/><path d="M23.918 18.32h-3.395l1.445-2.086c2.728-3.637 2.333-9.615-.845-12.793A9.031 9.031 0 0014.694.778a9.033 9.033 0 00-6.429 2.663C5.087 6.62 4.693 12.597 7.41 16.22l1.455 2.101H5.303L.11 29.224h29L23.918 18.32zM8.18 15.665c-2.465-3.287-2.112-8.686.756-11.554a8.091 8.091 0 015.759-2.385 8.09 8.09 0 015.758 2.385c2.869 2.868 3.222 8.267.746 11.568l-6.505 9.393-4.676-6.752-1.838-2.655zm-2.278 3.603h3.62l5.172 7.47 5.173-7.47h3.452l4.29 9.008H1.611l4.29-9.008z" stroke-width=".2"/></g><defs><clipPath id="clip0_1_762"><path fill="#fff" transform="translate(.11 .5)" d="M0 0h29v29H0z"/></clipPath></defs></svg>