<svg width="24" height="24" fill="none" xmlns="http://www.w3.org/2000/svg"><path d="M11.995 0c-5.303 0-9.62 4.317-9.62 9.62a9.469 9.469 0 00.236 2.128c.146.65.363 1.289.644 1.897 1.037 2.44 3.316 6.189 8.318 10.204a.683.683 0 00.855 0c4.996-4.015 7.28-7.764 8.317-10.204a9.365 9.365 0 00.71-2.219c.11-.593.17-1.202.17-1.806-.01-5.303-4.327-9.62-9.63-9.62zm8.11 11.19c0 .01-.004.02-.004.03-.005.025-.02.1-.046.216v.01a7.984 7.984 0 01-.558 1.64c-.005.006-.005.016-.01.02-.94 2.23-3.004 5.631-7.492 9.34-4.488-3.709-6.55-7.11-7.492-9.34-.005-.004-.005-.014-.01-.02a8.52 8.52 0 01-.558-1.64v-.01c-.03-.115-.04-.19-.046-.216 0-.01-.005-.02-.005-.035a8.216 8.216 0 01-.15-1.57c0-4.553 3.708-8.262 8.261-8.262 4.554 0 8.262 3.709 8.262 8.262 0 .533-.05 1.062-.151 1.575z" fill="#9D0B1D"/><path d="M11.995 3.618a6.118 6.118 0 00-6.108 6.108 6.118 6.118 0 006.108 6.108 6.118 6.118 0 006.108-6.108 6.118 6.118 0 00-6.108-6.108zm0 10.858a4.755 4.755 0 01-4.75-4.75 4.758 4.758 0 014.75-4.75 4.758 4.758 0 014.75 4.75 4.755 4.755 0 01-4.75 4.75z" fill="#9D0B1D"/></svg>