<svg width="82" height="82" fill="none" xmlns="http://www.w3.org/2000/svg"><path d="M39.687.288c-.24.16-1.474 1.378-2.755 2.723-3.139 3.267-3.748 4.548-3.587 7.351.16 2.931 2.034 5.11 5.044 5.894 1.202.32 4.02.32 5.222 0 3.01-.785 4.884-2.963 5.045-5.894.16-2.803-.449-4.068-3.572-7.335C43.82 1.682 42.57.464 42.33.304c-.592-.4-2.05-.4-2.642-.016zM34.53 19.683c-1.025.673-1.057.817-1.057 5.093v3.892h15.054v-3.892c0-4.276-.032-4.42-1.057-5.093-.432-.288-.849-.304-6.47-.304-5.621 0-6.038.016-6.47.304zM8.825 33.793c-1.906.689-3.316 1.97-4.229 3.828l-.512 1.057-.048 3.139-.048 3.155.849.576c.464.305 1.345.993 1.954 1.538 2.594 2.242 4.308 2.306 6.614.256 2.819-2.498 4.789-3.46 7.095-3.46s4.276.962 7.095 3.46c2.21 1.97 4.1 1.97 6.31 0 2.819-2.498 4.789-3.46 7.095-3.46s4.276.962 7.095 3.46c2.21 1.97 4.1 1.97 6.31 0 2.819-2.498 4.789-3.46 7.095-3.46s4.276.962 7.095 3.46c2.29 2.034 4.036 1.986 6.534-.192a29.96 29.96 0 011.954-1.57l.929-.656-.048-3.123-.048-3.123-.545-1.121a7.694 7.694 0 00-3.459-3.46l-1.121-.544-31.55-.032c-30.815-.032-31.568-.032-32.416.272z" fill="#9D0B1D"/><path d="M18.947 48.928c-.449.224-1.202.753-1.682 1.169-1.442 1.265-2.082 1.73-3.171 2.322-1.682.913-2.547 1.121-4.228 1.041-1.25-.048-1.634-.144-2.659-.608-.657-.305-1.65-.897-2.194-1.314-.545-.4-1.025-.704-1.073-.64-.048.048-.096 3.635-.096 7.991v7.896h74.152V50.753l-.673.545c-1.73 1.41-3.747 2.194-5.573 2.194-2.29 0-4.18-.913-7.015-3.395-2.354-2.066-4.116-2.066-6.47 0-1.442 1.265-2.082 1.73-3.171 2.322-3.62 1.97-6.695 1.33-10.81-2.274-2.42-2.114-4.133-2.13-6.52-.048-1.44 1.265-2.081 1.73-3.17 2.322-3.62 1.97-6.695 1.33-10.81-2.274-1.218-1.057-2.34-1.618-3.284-1.618-.465 0-1.041.145-1.553.4zM1.041 71.782c-.176.096-.48.32-.689.497C0 72.599 0 72.663 0 76.795s0 4.196.352 4.516c.209.177.529.417.721.513.497.256 79.358.256 79.854 0a3.91 3.91 0 00.705-.513c.368-.32.368-.384.368-4.516s0-4.196-.352-4.516c-.209-.177-.529-.417-.721-.513-.497-.256-79.422-.24-79.886.016z" fill="#9D0B1D"/></svg>