<svg width="82" height="82" fill="none" xmlns="http://www.w3.org/2000/svg"><path d="M37.316.224C31.44 1.281 26.378 4.388 22.95 9.017c-4.98 6.774-5.781 15.887-2.034 23.366 3.156 6.31 9.145 10.827 16.08 12.076 2.05.385 5.958.385 8.008 0 10.666-1.938 18.418-11.227 18.418-22.085 0-10.603-7.32-19.667-17.777-21.974-1.634-.368-6.679-.464-8.329-.176z" fill="#9D0B1D"/><path d="M12.572 19.875C6.647 21.877 2.29 26.65.61 32.992c-.4 1.554-.56 5.237-.305 7.031.85 5.782 4.645 11.099 9.786 13.71 1.137.576 3.7 1.52 4.132 1.52.673.017.689.21.192 1.682-.272.817-.48 1.762-.48 2.21 0 .705.064.865.624 1.41.4.4.77.625 1.041.625h.4l.049 9.561.048 9.577.352.577c.529.833 1.233 1.17 2.338 1.073.93-.08 1.49-.416 1.922-1.17.144-.223.209-3.074.273-9.929l.08-9.593.528-.112c.913-.193 1.634-1.105 1.634-2.082 0-.289-.224-1.202-.48-2.034-.273-.833-.465-1.538-.433-1.57.032-.032.689-.24 1.49-.464 1.857-.545 4.02-1.618 5.605-2.771 1.393-1.025 4.004-3.684 3.795-3.876-.064-.064-.704-.304-1.409-.544-1.81-.641-4.709-2.163-6.406-3.38-7.48-5.365-11.708-13.821-11.42-22.822.033-1.233.065-2.242.065-2.242-.016 0-.657.224-1.458.496zm55.463 1.762c.288 8.985-3.94 17.441-11.42 22.806-1.697 1.218-4.596 2.739-6.406 3.38-.705.24-1.345.48-1.41.544-.207.192 2.403 2.851 3.797 3.876 1.585 1.153 3.747 2.226 5.605 2.77.8.225 1.457.433 1.49.465.031.032-.16.737-.433 1.57-.256.832-.48 1.745-.48 2.034 0 .977.72 1.89 1.633 2.082l.529.112.08 9.593c.064 6.855.128 9.706.272 9.93.432.753.993 1.089 1.922 1.169 1.105.096 1.81-.24 2.338-1.073l.352-.577.049-9.577L66 61.18h.4c.272 0 .64-.224 1.041-.625.56-.544.625-.705.625-1.393 0-.433-.209-1.442-.465-2.227-.432-1.313-.448-1.457-.208-1.537.144-.064.817-.272 1.473-.464 6.695-1.986 11.804-7.928 12.829-14.911.256-1.794.096-5.477-.304-7.03-1.73-6.567-6.39-11.484-12.62-13.342l-.802-.24.065 2.226zm-31.92 29.389c-1.361 4.308-1.393 4.532-.865 5.621.449.93 1.458 1.522 2.547 1.522h.8v11.163c0 10.65.017 11.163.305 11.611C39.398 81.68 40.007 82 41 82c.993 0 1.602-.32 2.098-1.057.288-.448.304-.961.304-11.611V58.169h.801c1.714 0 3.027-1.426 2.835-3.043-.08-.673-1.602-5.75-1.778-5.91-.032-.032-.817.016-1.73.128-1.569.176-4.564.128-6.15-.112l-.656-.096-.609 1.89z" fill="#9D0B1D"/></svg>