<svg width="82" height="82" fill="none" xmlns="http://www.w3.org/2000/svg"><g clip-path="url(#clip0_1_939)" fill="#9D0B1D"><path d="M38.277 2.002c-1.36 1.105-2.53 2.002-2.594 2.002-.08 0-1.506-.545-3.187-1.217-1.714-.689-3.107-1.17-3.187-1.09-.064.08-.945 1.298-1.938 2.707a170.55 170.55 0 01-1.842 2.627c-.048.048-5.141-.4-6.166-.56l-.577-.08-1.089 3.17a171.232 171.232 0 01-1.12 3.22c-.017.015-1.506.32-3.284.672-1.778.353-3.267.657-3.283.673-.032.032-.128 1.521-.208 3.315-.145 2.819-.209 3.315-.449 3.491-.144.113-1.49.817-2.963 1.57-1.49.753-2.706 1.457-2.706 1.57 0 .112.336 1.585.752 3.299l.77 3.107-2.467 2.338-2.45 2.338 1.697 2.931L3.7 41l-1.714 2.915-1.698 2.93 2.45 2.339 2.467 2.354-.769 3.091c-.416 1.714-.752 3.187-.752 3.3 0 .112 1.217.816 2.706 1.569 1.474.753 2.819 1.458 2.963 1.57.24.176.304.672.449 3.491.08 1.794.176 3.283.208 3.315.016.016 1.49.32 3.267.657 1.778.352 3.267.656 3.3.688.015.017.528 1.474 1.12 3.22l1.09 3.17.576-.08c1.025-.16 6.118-.608 6.166-.56.032.032.865 1.217 1.842 2.627.993 1.41 1.874 2.626 1.938 2.706.08.08 1.49-.4 3.235-1.105 2.546-1.009 3.139-1.2 3.38-1.04.16.095 1.328 1.008 2.594 2.017C39.783 81.167 40.904 82 41 82c.096 0 1.265-.865 2.61-1.938 1.33-1.057 2.515-1.97 2.627-2.018.096-.032 1.57.48 3.251 1.17 1.762.704 3.123 1.168 3.187 1.088.08-.08.961-1.297 1.954-2.706.977-1.41 1.826-2.595 1.842-2.627.064-.064 5.35.416 6.246.56l.497.097 1.089-3.187c.592-1.746 1.105-3.203 1.137-3.235.032-.032 1.49-.32 3.267-.657 1.778-.337 3.251-.625 3.283-.657.032-.032.128-1.537.209-3.315.096-1.794.224-3.331.288-3.395.08-.08 1.425-.801 2.995-1.602 1.553-.8 2.835-1.553 2.835-1.65 0-.112-.337-1.585-.753-3.299l-.769-3.09 2.466-2.355 2.45-2.338-1.697-2.931L78.3 41l1.714-2.915 1.698-2.93-2.45-2.339-2.467-2.354.769-3.091c.416-1.714.753-3.187.753-3.3 0-.096-1.282-.848-2.835-1.65-1.57-.8-2.915-1.52-2.995-1.6-.064-.065-.192-1.602-.288-3.396-.08-1.778-.177-3.283-.209-3.315-.032-.032-1.505-.32-3.283-.657-1.778-.336-3.235-.624-3.267-.656-.032-.033-.545-1.49-1.137-3.236l-1.09-3.187-.496.096c-.897.144-6.182.625-6.246.56-.016-.031-.865-1.216-1.842-2.626-.993-1.41-1.873-2.626-1.954-2.706-.064-.08-1.425.384-3.187 1.089-1.681.688-3.155 1.2-3.25 1.169-.113-.048-1.298-.961-2.627-2.018C42.265.865 41.08 0 40.968.016c-.112 0-1.33.897-2.69 1.986zm5.734 9.866c10.106 1.105 18.898 7.287 23.319 16.384 6.406 13.18 2.098 28.876-10.154 37.108-10.266 6.903-23.703 6.502-33.793-.993-1.698-1.265-4.42-3.988-5.686-5.67-8.44-11.259-7.88-26.458 1.346-37.028 6.166-7.047 15.759-10.81 24.968-9.801z"/><path d="M38.23 16.512c-3.94.448-7.88 1.922-11.196 4.164-1.953 1.33-5.028 4.405-6.358 6.358-1.153 1.698-2.53 4.5-3.123 6.327-1.57 4.836-1.57 10.442 0 15.278.593 1.826 1.97 4.629 3.123 6.327 1.41 2.066 4.42 5.06 6.47 6.422 6.487 4.292 14.19 5.381 21.445 3.059 1.858-.577 4.661-1.97 6.375-3.123 1.953-1.33 5.029-4.404 6.358-6.358 1.153-1.698 2.514-4.485 3.123-6.359 1.57-4.836 1.57-10.41 0-15.246-.593-1.826-1.97-4.629-3.123-6.327-1.313-1.938-4.404-5.028-6.31-6.326-5.013-3.38-10.971-4.885-16.785-4.196zm22.47 15.07c.015.657-1.026 10.795-1.122 10.907-.176.193-3.587.897-3.716.785-.047-.064-.72-1.249-1.489-2.642-.769-1.394-1.457-2.483-1.521-2.403-.064.064-.24 1.426-.385 2.995-.144 1.586-.272 2.899-.304 2.915-.048.064-3.7.849-3.732.817-.016-.016-1.281-2.242-2.819-4.933l-2.802-4.9 1.745-.37c.961-.191 1.762-.335 1.794-.303.032.032.577.993 1.217 2.146 1.682 3.027 1.938 3.475 2.018 3.411.048-.064.705-5.814.705-6.278 0-.224 3.043-.945 3.235-.769.064.064.769 1.297 1.57 2.755 1.441 2.594 1.761 3.107 1.761 2.787 0-.593.657-6.375.737-6.455.112-.112 2.242-.608 2.755-.64.192 0 .352.08.352.176zm-19.396 4.886c.112.512.24 1.073.289 1.265.064.304-.113.368-2.515.865l-2.578.528.112.657c.048.368.128.688.16.72.032.032.977-.128 2.098-.368 1.137-.224 2.13-.416 2.242-.416.192 0 .4.624.609 1.777l.112.577-2.146.432c-1.17.257-2.178.497-2.242.561-.113.096.096 1.25.256 1.41.048.063 1.265-.145 2.706-.45l2.595-.56.272 1.202c.144.672.224 1.265.16 1.313-.112.112-8.552 1.938-8.616 1.858-.064-.048-2.258-10.442-2.226-10.49.048-.065 7.944-1.762 8.264-1.778.176-.016.304.24.448.897zm-10.33 6.694c.609 2.867 1.073 5.237 1.041 5.27-.08.08-2.306.576-2.594.576-.128 0-1.33-.865-2.675-1.922-1.345-1.057-2.514-1.922-2.594-1.922-.08 0-.113.128-.065.272.273.993.913 4.405.833 4.485-.048.064-.8.256-1.65.432l-1.569.336-1.137-5.285-1.137-5.285 1.377-.288c.753-.144 1.442-.24 1.538-.208.08.032 1.265.929 2.626 2.002 1.362 1.073 2.499 1.922 2.515 1.89.032-.033-.176-1.106-.449-2.403-.272-1.297-.464-2.402-.4-2.45.112-.112 2.434-.657 2.915-.689.288-.016.416.433 1.425 5.19z"/></g><defs><clipPath id="clip0_1_939"><path fill="#fff" d="M0 0h82v82H0z"/></clipPath></defs></svg>