<svg width="79" height="80" fill="none" xmlns="http://www.w3.org/2000/svg"><path d="M38.166 1.897a2 2 0 012.524 0l6.717 5.464a2 2 0 001.58.424l8.548-1.374a2 2 0 012.186 1.262l3.085 8.09a2 2 0 001.156 1.157l8.091 3.085a2 2 0 011.262 2.186l-1.373 8.549a2 2 0 00.423 1.58l5.464 6.716a2 2 0 010 2.524l-5.464 6.717a2 2 0 00-.423 1.58l1.373 8.549a2 2 0 01-1.262 2.186l-8.09 3.085a2 2 0 00-1.157 1.156l-3.085 8.09a2 2 0 01-2.186 1.263l-8.549-1.374a2 2 0 00-1.58.423L40.69 78.7a2 2 0 01-2.524 0l-6.717-5.464a2 2 0 00-1.58-.423l-8.549 1.374a2 2 0 01-2.186-1.262l-3.085-8.091a2 2 0 00-1.156-1.156l-8.09-3.085a2 2 0 01-1.263-2.186l1.374-8.55a2 2 0 00-.423-1.579L1.027 41.56a2 2 0 010-2.524L6.49 32.32a2 2 0 00.423-1.58L5.54 22.192a2 2 0 011.263-2.186l8.09-3.085a2 2 0 001.156-1.156l3.085-8.09A2 2 0 0121.32 6.41l8.55 1.374a2 2 0 001.579-.424l6.717-5.464z" fill="#F1B20B"/><path d="M29.207 28.571l1.76 2.974h.069l1.768-2.974h2.084l-2.664 4.364 2.723 4.363h-2.122l-1.79-2.978h-.068l-1.79 2.978h-2.113l2.732-4.363-2.68-4.364h2.091zm6.848 0h1.841v5.489h.073l3.771-5.489h1.615v8.727H41.51v-5.493h-.064l-3.793 5.493h-1.598v-8.727zm8.492 1.521v-1.52h7.168v1.52h-2.672v7.206h-1.824v-7.206h-2.672zm-28.23 22.206v-6.545h5.722v6.545h-1.734V47.18h-2.276v5.118h-1.713zm7.171 2.455v-9h1.79v1.1h.08c.08-.177.195-.356.346-.538.153-.184.352-.338.597-.46.247-.125.554-.187.92-.187.477 0 .918.125 1.321.375.403.247.726.62.967 1.12.242.498.363 1.121.363 1.871 0 .73-.118 1.347-.354 1.85-.233.5-.551.879-.955 1.137-.4.256-.849.384-1.346.384-.352 0-.652-.058-.9-.175a1.859 1.859 0 01-.6-.439 2.225 2.225 0 01-.358-.541h-.056v3.503h-1.815zm1.777-5.727c0 .389.054.728.162 1.018.108.29.264.516.469.678.204.159.453.238.745.238.296 0 .546-.08.75-.243.205-.164.36-.392.465-.681.108-.293.162-.63.162-1.01 0-.378-.053-.71-.158-.998a1.486 1.486 0 00-.464-.673 1.177 1.177 0 00-.755-.243 1.2 1.2 0 00-.75.235 1.471 1.471 0 00-.464.664 2.878 2.878 0 00-.162 1.015zm8.774 3.4c-.662 0-1.234-.14-1.717-.422a2.887 2.887 0 01-1.112-1.184c-.262-.509-.392-1.098-.392-1.769 0-.676.13-1.267.392-1.773a2.852 2.852 0 011.112-1.184c.483-.284 1.055-.426 1.717-.426.662 0 1.233.142 1.713.426a2.85 2.85 0 011.117 1.184c.261.506.392 1.097.392 1.773 0 .67-.13 1.26-.392 1.769-.262.505-.634.9-1.117 1.184-.48.282-1.05.422-1.713.422zm.009-1.406c.3 0 .552-.085.754-.256a1.58 1.58 0 00.456-.707c.105-.298.158-.638.158-1.019 0-.38-.053-.72-.158-1.018a1.586 1.586 0 00-.456-.708 1.117 1.117 0 00-.754-.26c-.304 0-.56.087-.767.26a1.6 1.6 0 00-.465.708 3.134 3.134 0 00-.153 1.018c0 .381.051.72.153 1.019.105.298.26.534.465.707.207.17.463.256.767.256zm3.882 3.196v-3.358h.503a.943.943 0 00.35-.435 3.36 3.36 0 00.22-.703c.06-.27.106-.56.137-.873.034-.316.064-.634.09-.955l.17-2.14h5.02v5.106h1.014v3.358h-1.73v-1.918h-4.001v1.918H37.93zm2.31-3.358h2.467v-3.707h-1.764l-.069.741a15.946 15.946 0 01-.208 1.781c-.091.486-.233.881-.426 1.185zm8.118 1.564c-.417 0-.79-.072-1.116-.217a1.798 1.798 0 01-.776-.652c-.187-.29-.28-.651-.28-1.083 0-.363.066-.669.2-.916.133-.247.315-.446.545-.597.23-.15.491-.264.784-.34.295-.077.605-.131.929-.162.38-.04.688-.077.92-.111.233-.037.402-.091.508-.162a.356.356 0 00.157-.316v-.025c0-.27-.085-.479-.255-.627-.168-.147-.407-.221-.716-.221-.327 0-.587.072-.78.217a1 1 0 00-.384.537l-1.679-.136c.086-.398.253-.742.503-1.031a2.42 2.42 0 01.968-.674c.397-.159.857-.238 1.38-.238.364 0 .712.042 1.044.127.335.086.632.218.89.397.262.179.468.409.619.69.15.279.226.612.226 1.002v4.414h-1.722v-.907h-.051a1.849 1.849 0 01-.422.54 1.954 1.954 0 01-.635.363 2.625 2.625 0 01-.857.128zm.52-1.253c.267 0 .503-.052.708-.158a1.25 1.25 0 00.481-.434 1.12 1.12 0 00.175-.618v-.695a.966.966 0 01-.234.102 4.289 4.289 0 01-.329.081c-.122.023-.244.044-.366.064l-.332.047c-.213.032-.4.081-.559.15a.892.892 0 00-.37.276.675.675 0 00-.132.427c0 .247.09.436.268.566.182.128.412.192.69.192zm4.149 1.13l2.288-3.405-2.275-3.141h2.07l1.7 2.561h.282v-2.561h1.816v2.561h.272l1.7-2.561h2.072l-2.272 3.14 2.284 3.405h-2.118l-1.683-2.556h-.255v2.556h-1.816v-2.556h-.255l-1.692 2.556h-2.118z" fill="#fff"/></svg>