<svg width="75" height="76" fill="none" xmlns="http://www.w3.org/2000/svg"><circle cx="37.224" cy="37.95" r="37.224" fill="#005AFD"/><path d="M8.449 35.92v-6.546h1.815v2.54h.512l1.781-2.54h2.13l-2.313 3.247 2.34 3.299h-2.157l-1.615-2.323h-.678v2.323H8.45zm8.257 2.454a3.59 3.59 0 01-.647-.055 2.356 2.356 0 01-.495-.132l.41-1.355c.213.065.404.1.575.106a.73.73 0 00.447-.12c.128-.084.232-.23.311-.434l.107-.277-2.348-6.733h1.909l1.355 4.807h.068l1.368-4.807h1.922l-2.544 7.253c-.122.352-.288.66-.499.92-.207.265-.47.468-.788.61-.318.145-.702.217-1.15.217zm5.911-2.454v-6.546h5.723v6.546h-1.734v-5.118H24.33v5.118h-1.713zm8.906-2.395l2.357-4.15h1.79v6.545h-1.73v-4.164l-2.35 4.164h-1.8v-6.546h1.734v4.15zm4.945-2.723v-1.428h5.931v1.428H40.29v5.118h-1.73v-5.118h-2.093zm8.17.584h1.956c.866 0 1.542.207 2.028.622.486.412.729.963.729 1.653 0 .449-.11.844-.328 1.185a2.182 2.182 0 01-.947.792c-.411.188-.906.282-1.482.282H43.5v-6.546h1.734v5.118h1.36c.303 0 .553-.077.75-.23a.727.727 0 00.298-.588.771.771 0 00-.298-.618c-.197-.162-.447-.243-.75-.243h-1.956v-1.427zm13.25.537v1.427H54.47v-1.428h3.417zm-2.822-2.549v6.546h-1.734v-6.546h1.734zm3.959 0v6.546h-1.722v-6.546h1.722zm3.275 6.67c-.418 0-.79-.073-1.117-.218a1.797 1.797 0 01-.775-.652c-.188-.29-.281-.65-.281-1.082 0-.364.066-.67.2-.917a1.62 1.62 0 01.545-.596c.23-.15.492-.264.784-.341.296-.077.605-.13.93-.162.38-.04.687-.077.92-.11.233-.038.402-.092.507-.163a.356.356 0 00.158-.315v-.026c0-.27-.086-.478-.256-.626-.168-.148-.406-.222-.716-.222-.327 0-.587.073-.78.218a1 1 0 00-.383.537l-1.68-.137a2.29 2.29 0 01.504-1.031c.25-.293.572-.517.967-.673.398-.16.858-.239 1.38-.239.364 0 .712.043 1.045.128.335.085.632.217.89.396.262.18.468.41.618.69.15.279.226.613.226 1.002v4.415h-1.722v-.908h-.05a1.846 1.846 0 01-.423.541 1.954 1.954 0 01-.635.362 2.625 2.625 0 01-.856.128zm.52-1.254c.267 0 .503-.052.707-.157.205-.108.365-.253.482-.435a1.12 1.12 0 00.174-.618v-.694a.974.974 0 01-.234.102 4.234 4.234 0 01-.328.08 15.52 15.52 0 01-.367.065l-.332.047c-.213.03-.4.08-.558.149a.892.892 0 00-.37.277.674.674 0 00-.133.426c0 .247.09.436.268.567.182.128.412.191.69.191z" fill="#fff"/><g clip-path="url(#clip0_4_3786)" fill="#fff"><path d="M13.133 41.306a6.616 6.616 0 00-1.934.576c-1.73.81-2.987 2.298-3.456 4.097-.12.455-.139.657-.139 1.52 0 .728.01.898.062 1.159.333 1.657 1.318 3.085 2.793 4.038a8.267 8.267 0 001.536.719 6.902 6.902 0 003.669.119c2.295-.559 4.097-2.299 4.683-4.526a6.65 6.65 0 00.158-2.173 6.07 6.07 0 00-1.793-3.688 6.25 6.25 0 00-1.799-1.262c-.947-.443-1.811-.63-2.906-.624-.321.003-.716.02-.873.045zm1.49 2.927a3.462 3.462 0 012.51 1.791 3 3 0 01.354 1.47c0 1.612-1.172 2.951-2.842 3.254-.37.069-1.058.045-1.425-.047-1.213-.306-2.154-1.2-2.493-2.367-.077-.267-.083-.332-.083-.84s.006-.57.086-.843c.17-.586.46-1.067.9-1.488.806-.772 1.85-1.099 2.994-.93zm27.917-2.93c-1.845.178-3.517.715-4.884 1.576-2.428 1.527-3.462 3.828-2.712 6.04.78 2.302 3.413 4.11 6.754 4.644.78.125 1.136.149 2.083.149.663 0 1.015-.012 1.357-.054 2.058-.234 3.783-.858 5.193-1.873.602-.43 1.24-1.07 1.614-1.616.648-.944.925-1.912.855-3.008-.072-1.173-.645-2.31-1.645-3.275-.645-.624-1.355-1.105-2.25-1.53-1.27-.602-2.6-.947-4.106-1.068-.506-.039-1.762-.033-2.258.015zm2.29 2.942c2.459.253 4.573 1.509 4.903 2.913.061.262.061.38.003.645-.26 1.173-1.892 2.334-3.888 2.764a9.102 9.102 0 01-1.823.214c-1.47.039-2.759-.205-3.956-.751-1.228-.559-2.073-1.375-2.274-2.192-.176-.71.225-1.52 1.077-2.18 1.456-1.125 3.66-1.647 5.958-1.413zm-21.228-2.678c-.395.092-.787.38-.979.718-.24.428-.237 1.013.007 1.423.123.208.41.463.644.579.364.175.392.178 2.759.178h2.153l-.765.971c-.42.538-.969 1.235-1.218 1.553-.253.318-.763.965-1.133 1.44l-1.388 1.767c-2.17 2.756-2.08 2.637-2.095 2.803a.397.397 0 00.24.41c.102.05.42.053 5.354.053 5.797 0 5.473.01 5.874-.193.522-.264.806-.712.806-1.276 0-.687-.451-1.25-1.145-1.426-.14-.035-.617-.044-2.814-.044h-2.647l.762-.974 1.243-1.58 2.114-2.687c.345-.443.922-1.176 1.283-1.634l.92-1.167c.24-.305.265-.35.274-.49a.398.398 0 00-.213-.406c-.102-.06-.163-.06-4.992-.057-3.74.003-4.927.012-5.044.039zm31.578.015a.521.521 0 00-.17.154c-.06.101-.06.155-.06 5.283V52.2l.067.208c.133.407.38.686.778.888.79.401 1.761.033 2.104-.799l.074-.178.015-2.586.016-2.583.543.415c.3.232.771.591 1.049.805.561.428 1.746 1.333 4.039 3.088l1.28.98c.426.324.882.674 1.018.778.136.104.3.205.364.223a.442.442 0 00.439-.125l.092-.092.01-5.232c.006-4.716.002-5.247-.044-5.393a1.403 1.403 0 00-.395-.644 1.54 1.54 0 00-2.132.003 1.779 1.779 0 00-.268.33c-.182.326-.18.27-.18 3.017 0 1.383-.009 2.518-.018 2.518s-.284-.205-.608-.455c-.327-.25-.826-.635-1.116-.855-.562-.428-1.154-.882-2.268-1.734l-2.407-1.841-1.12-.858a14.474 14.474 0 00-.694-.511.479.479 0 00-.407.015z"/></g><defs><clipPath id="clip0_4_3786"><path fill="#fff" transform="translate(7.604 41.258)" d="M0 0h59.24v12.472H0z"/></clipPath></defs></svg>