<svg width="28" height="28" fill="none" xmlns="http://www.w3.org/2000/svg"><g clip-path="url(#clip0_1_1346)"><mask id="a" style="mask-type:luminance" maskUnits="userSpaceOnUse" x="0" y="0" width="28" height="28"><path d="M28 0H0v28h28V0z" fill="#fff"/></mask><g mask="url(#a)"><path d="M17.336 0H4.102v28h19.796V6.562l-4.648-1.64L17.336 0z" fill="#F3EEE9"/><path d="M17.336 0H14v28h9.898V6.562l-4.648-1.64L17.336 0z" fill="#E9DFDA"/><path d="M17.336 6.563h6.562L17.336 0v6.563z" fill="#DAD0CB"/><path d="M2.188 10.664h23.625v12.36H2.188v-12.36z" fill="#FF4B00"/><path d="M14 10.664h11.813v12.36H14v-12.36z" fill="#DD3400"/><path d="M4.559 20v-6.3h2.7c.804 0 1.44.198 1.908.594.474.39.71.936.71 1.638 0 .72-.248 1.278-.746 1.674-.498.396-1.152.594-1.962.594h-.864V20H4.559zm1.746-3.168h.828c.312 0 .555-.075.729-.225.18-.15.27-.354.27-.612 0-.27-.09-.474-.27-.612-.174-.144-.42-.216-.738-.216h-.82v1.665zM10.615 20v-6.3h2.43c1.103 0 1.97.288 2.6.864.636.576.954 1.332.954 2.268 0 .93-.32 1.692-.963 2.286-.642.588-1.518.882-2.628.882h-2.394zm1.745-1.548h.711c.528 0 .948-.141 1.26-.423.318-.282.477-.678.477-1.188 0-.498-.159-.891-.477-1.179-.312-.288-.732-.432-1.26-.432h-.71v3.222zM17.496 20v-6.3h5.04v1.53h-3.294v1.071h2.98v1.449h-2.98V20h-1.746z" fill="#fff"/></g></g><defs><clipPath id="clip0_1_1346"><path fill="#fff" d="M0 0h28v28H0z"/></clipPath></defs></svg>