<svg width="24" height="25" fill="none" xmlns="http://www.w3.org/2000/svg"><g clip-path="url(#clip0_1_344)"><path d="M23.706 22.477l-5.77-5.77a10.079 10.079 0 002.293-6.412c0-5.583-4.531-10.114-10.115-10.114C4.526.181 0 4.711 0 10.296 0 15.879 4.526 20.41 10.114 20.41c2.435 0 4.663-.857 6.407-2.288l5.77 5.765a1 1 0 001.415 0 .993.993 0 000-1.41zm-13.592-4.08c-4.472 0-8.106-3.635-8.106-8.101 0-4.467 3.634-8.107 8.106-8.107 4.467 0 8.106 3.64 8.106 8.107 0 4.466-3.639 8.1-8.106 8.1z" fill="#8B8D8D"/></g><defs><clipPath id="clip0_1_344"><path fill="#fff" transform="translate(0 .181)" d="M0 0h24v24H0z"/></clipPath></defs></svg>