<svg width="34" height="35" fill="none" xmlns="http://www.w3.org/2000/svg"><path d="M17 34.678c9.389 0 17-7.61 17-17 0-9.389-7.611-17-17-17s-17 7.611-17 17c0 9.39 7.611 17 17 17z" fill="url(#paint0_linear_1_67)"/><path fill-rule="evenodd" clip-rule="evenodd" d="M7.695 17.499c4.956-2.16 8.26-3.583 9.914-4.27 4.721-1.964 5.702-2.305 6.342-2.317.14-.002.455.033.658.198.172.14.22.328.242.46.023.133.051.434.029.67-.256 2.688-1.363 9.211-1.926 12.222-.239 1.274-.708 1.7-1.162 1.743-.987.09-1.737-.653-2.693-1.28-1.496-.98-2.341-1.59-3.794-2.548-1.678-1.106-.59-1.714.366-2.707.25-.26 4.6-4.217 4.684-4.576.011-.045.02-.212-.079-.3-.099-.089-.246-.059-.352-.034-.15.034-2.54 1.614-7.17 4.74-.679.465-1.293.692-1.844.68-.607-.013-1.774-.343-2.642-.625-1.065-.346-1.911-.53-1.838-1.117.039-.306.46-.62 1.265-.94z" fill="#9D0B1D"/><defs><linearGradient id="paint0_linear_1_67" x1="17" y1=".678" x2="17" y2="34.426" gradientUnits="userSpaceOnUse"><stop stop-color="#fff"/><stop offset="1" stop-color="#fff"/></linearGradient></defs></svg>