<svg width="24" height="24" fill="none" xmlns="http://www.w3.org/2000/svg"><g clip-path="url(#clip0_1_1179)" fill="#9D0B1D"><path d="M11.998 3.913a.523.523 0 00.522-.522v-.26a.523.523 0 00-.522-.522.523.523 0 00-.521.521v.261c0 .287.234.522.521.522zm0 16.174a.523.523 0 00-.521.522v.26c0 .288.234.522.521.522a.523.523 0 00.522-.521v-.261a.523.523 0 00-.522-.522zm-8.606-8.609h-.26a.523.523 0 00-.523.522c0 .287.235.522.522.522h.261A.523.523 0 003.914 12a.523.523 0 00-.522-.522zm17.477 0h-.261a.523.523 0 00-.522.522c0 .287.235.522.522.522h.26A.523.523 0 0021.39 12a.523.523 0 00-.521-.522zM6.106 5.374a.504.504 0 00-.73 0 .504.504 0 000 .73l.182.183a.515.515 0 00.365.156c.13 0 .261-.052.365-.156a.504.504 0 000-.73l-.182-.183zm-.548 12.339l-.183.182a.504.504 0 000 .73.515.515 0 00.365.157.52.52 0 00.366-.156l.182-.183a.504.504 0 000-.73.504.504 0 00-.73 0zm12.34-12.339l-.183.183a.504.504 0 000 .73.515.515 0 00.365.156.52.52 0 00.366-.156l.182-.183a.504.504 0 000-.73.504.504 0 00-.73 0zm-5.378 6.417V7.043a.523.523 0 00-.522-.521.523.523 0 00-.521.521V12c0 .13.052.26.156.365l5.713 5.713a.515.515 0 00.365.157c.13 0 .261-.052.366-.157a.504.504 0 000-.73L12.52 11.79z"/><path d="M12 0C5.374 0 0 5.374 0 12s5.374 12 12 12 12-5.374 12-12S18.626 0 12 0zm0 22.956C5.948 22.956 1.043 18.052 1.043 12S5.948 1.043 12 1.043c6.052 0 10.956 4.905 10.956 10.957 0 6.052-4.904 10.956-10.956 10.956z"/></g><defs><clipPath id="clip0_1_1179"><path fill="#fff" d="M0 0h24v24H0z"/></clipPath></defs></svg>