<svg width="20" height="15" fill="none" xmlns="http://www.w3.org/2000/svg"><path d="M8 10.68V4.677l5.2 3.001L8 10.68z" fill="#fff"/><path d="M19.578 2.864A2.5 2.5 0 0017.814 1.1C16.257.678 10 .678 10 .678s-6.257 0-7.814.422A2.5 2.5 0 00.422 2.864C.132 4.452-.01 6.064 0 7.678a25.89 25.89 0 00.42 4.814 2.5 2.5 0 001.765 1.765c1.557.421 7.814.421 7.814.421s6.257 0 7.814-.421a2.5 2.5 0 001.764-1.764c.29-1.588.432-3.2.422-4.815a25.822 25.822 0 00-.422-4.814zM8 10.678v-6l5.193 3-5.193 3z" fill="#9D0B1D"/></svg>